<svg xmlns="http://www.w3.org/2000/svg" xmlns:xlink="http://www.w3.org/1999/xlink" width="300" height="110"
  viewBox="0 0 300 110">
  <defs>
    <clipPath id="clip-IDS_Logo">
      <rect width="300" height="110" />
    </clipPath>
  </defs>
  <g id="IDS_Logo" data-name="IDS Logo" clip-path="url(#clip-IDS_Logo)">
    <g id="Group_14535" data-name="Group 14535" transform="translate(21 24)">
      <g id="Group_14491" data-name="Group 14491" transform="translate(-5)">
        <g id="Group_14490" data-name="Group 14490" transform="translate(0 0)">
          <path id="Path_1" data-name="Path 1"
            d="M176.913,97.759l.008-.009,14.665-21.108h13.4L191.077,97.759l13.909,21.12h-13.4L176.895,97.786l0,0Z"
            transform="translate(34.278 -57.724)" fill="#ffffff" />
          <path id="Path_2" data-name="Path 2"
            d="M204.431,71.575V80.82h-7.124v9.838h6.446v32.4h11.534v-32.4h7.122V80.82h-7.122V69.115Z"
            transform="translate(45.61 -61.903)" fill="#ffffff" />
          <path id="Path_3" data-name="Path 3"
            d="M47.887,64.477a6.667,6.667,0,0,1,6.785,6.871,6.785,6.785,0,1,1-13.57,0,6.718,6.718,0,0,1,6.785-6.871m5.766,61.4H42.119V83.644H53.653Z"
            transform="translate(-41.102 -64.477)" fill="#ffffff" />
          <path id="Path_4" data-name="Path 4"
            d="M86.855,119.424a15.8,15.8,0,0,1-12.976,6.36c-11.957,0-20.016-9.67-20.016-22.052s8.059-21.966,20.1-21.966a15.566,15.566,0,0,1,12.89,6.276V66.332H98.391v58.519H86.855ZM76.339,93.131a10.645,10.645,0,1,0,10.516,10.6,10.426,10.426,0,0,0-10.516-10.6"
            transform="translate(-34.018 -63.447)" fill="#f3f3f3" />
          <path id="Path_5" data-name="Path 5"
            d="M112.925,89.063a19.546,19.546,0,0,0-9.245-2.8c-2.883,0-4.155,1.442-4.155,3.054,0,1.356.848,2.034,2.46,3.053l6.105,3.561c5.09,3.054,6.955,7.04,6.955,11.45,0,7.294-5.427,12.89-15.52,12.89a30.036,30.036,0,0,1-11.026-2.12V106.621a19.1,19.1,0,0,0,10.178,3.731c2.967,0,4.41-1.358,4.41-3.138,0-1.356-.764-2.46-2.8-3.647L93.673,99.75a12.01,12.01,0,0,1-6.107-10.856c0-7.465,5.768-12.637,15.691-12.637a35.455,35.455,0,0,1,9.668,1.442Z"
            transform="translate(-15.309 -57.938)" fill="#ffffff" />
          <path id="Path_6" data-name="Path 6"
            d="M134.854,76.1a12.489,12.489,0,0,0-11.11,6.191V76.944H112.208v42.237h11.536V94.67c.254-4.5,2.969-7.3,7.208-7.3,4.412,0,7.21,3.138,7.21,7.8v24H149.78V91.955c0-9.074-5.85-15.859-14.926-15.859"
            transform="translate(-1.63 -58.027)" fill="#ffffff" />
          <path id="Path_7" data-name="Path 7"
            d="M152.319,92.974c.594-3.987,4.41-7.294,9.5-7.294,4.92,0,8.567,2.967,8.737,7.294ZM161.9,76.1c-12.214,0-21.119,9.584-21.119,21.966,0,13.145,9.245,22.052,21.8,22.052a33.943,33.943,0,0,0,15.267-3.308V105.695a27.248,27.248,0,0,1-14.334,3.987c-5.936,0-10.177-3.138-11.2-7.973h28.667a26.487,26.487,0,0,0,.678-5.513c0-10.94-7.549-20.1-19.761-20.1"
            transform="translate(14.234 -58.027)" fill="#ffffff" />
          <path id="Path_8" data-name="Path 8"
            d="M195.908,97.759l-.008-.009L181.236,76.642h-13.4l13.909,21.117-13.909,21.12h13.4l14.691-21.092,0,0Z"
            transform="translate(29.25 -57.724)" fill="#ffffff" />
          <path id="Path_9" data-name="Path 9" d="M167.835,111.34l13.909-21.12,14.184.026L181.236,111.34Z"
            transform="translate(29.25 -50.187)" fill="#ffffff" />
        </g>
      </g>
    </g>
  </g>
</svg>