<svg xmlns="http://www.w3.org/2000/svg" height="800" width="1200" version="1.0" viewBox="-95.705205 -19.9941 829.44511 119.9646"><path d="M265.5913 52.032h40.652L284.748 17.4495l-39.4513 62.527h-17.955l47.986-75.1083C277.414 1.8334 280.8911 0 284.748 0c3.7298 0 7.207 1.7702 9.2302 4.7417l48.1755 75.2347h-17.955l-8.4719-13.9722h-41.158zm186.5063 13.9722V.7587H436.861v71.631c0 1.96.7588 3.8566 2.2128 5.3107 1.454 1.4541 3.414 2.276 5.5635 2.276h69.4816l8.9775-13.9722zm-252.068-11.6961c14.7943 0 26.8066-11.949 26.8066-26.7431 0-14.794-12.0123-26.8063-26.8065-26.8063H133.374v79.2177h15.2306V14.7308h50.4135c7.0811 0 12.771 5.7532 12.771 12.8342 0 7.0809-5.6899 12.8342-12.771 12.8342l-42.9532-.0633 45.482 39.6404h22.1281L193.0754 54.308zM39.6157 79.9764C17.7465 79.9764 0 62.274 0 40.3992 0 18.5242 17.7467.7587 39.6155.7587h46.0446c21.875 0 39.609 17.7655 39.609 39.6405 0 21.8749-17.734 39.5772-39.609 39.5772zM84.636 66.0042c14.1684 0 25.6433-11.4433 25.6433-25.605 0-14.1619-11.4749-25.6684-25.6433-25.6684H40.6332c-14.1618 0-25.6433 11.5065-25.6433 25.6684 0 14.1617 11.4815 25.605 25.6433 25.605zm289.3186 13.9722c-21.875 0-39.6403-17.7023-39.6403-39.5772 0-21.875 17.7653-39.6405 39.6403-39.6405h54.6874l-8.9143 13.9721h-44.7615c-14.1619 0-25.668 11.5065-25.668 25.6684 0 14.1617 11.5061 25.605 25.668 25.605h54.9401l-8.9774 13.9722zm186.3167-13.9722c-11.6963 0-21.6222-7.8396-24.657-18.6506h65.1193l8.9775-13.9722h-74.0968c3.0348-10.7478 12.9607-18.6506 24.657-18.6506h44.6983L614.0102.7587h-54.7506c-21.875 0-39.6403 17.7655-39.6403 39.6405 0 21.8749 17.7653 39.5772 39.6403 39.5772h46.9743l8.9774-13.9722h-54.94m61.8948-56.8369a6.9341 6.9341 0 016.9543-6.9545c3.92 0 7.0175 3.0979 7.0175 6.9545 0 3.9197-3.0975 7.0176-7.0175 7.0176-3.8568 0-6.9543-3.0979-6.9543-7.0176zm6.9543 8.9775c4.9311 0 8.9143-3.983 8.9143-8.9143 0-4.9314-3.9832-8.9144-8.9143-8.9144-4.8684 0-8.851 3.983-8.851 8.9144 0 4.9313 3.9826 8.9143 8.851 8.9143zm-.822-14.225c1.3908 0 1.96.0632 2.5924.316 1.77.5691 1.9595 2.1496 1.9595 2.7819 0 .1264 0 .4425-.1264.8218-.063.3794-.3159 1.138-1.201 1.707-.1265.0633-.1897.1265-.4425.253l2.276 4.1094h-2.2128l-2.0232-3.7933h-1.3907v3.7933h-1.96V3.9198zm.6956 4.552c.632-.0632 1.2644-.0632 1.6436-.6323.1895-.2528.2532-.5057.2532-.885 0-.5058-.3164-.9484-.7588-1.2013-.4428-.1896-.8852-.1896-1.8336-.1896h-.5687v2.9082h1.2643" fill="#f80000"/></svg>