<svg width="37" height="27" viewBox="0 0 37 27" fill="none" xmlns="http://www.w3.org/2000/svg">
    <path
        d="M9.15972 17.8317L4.5133 9.78711C1.9915 11.3948 0.320801 14.2129 0.320801 17.4282C0.320801 22.4403 4.3809 26.5004 9.39299 26.5004H23.2377L18.2319 17.8317H9.15972Z"
        fill="#ffffff" />
    <path
        d="M32.4169 25.0691C34.9387 23.4614 36.6094 20.6433 36.6094 17.428C36.6094 14.3388 35.0648 11.6152 32.7069 9.97607H23.7041L32.4169 25.0691Z"
        fill="#ffffff" />
    <path
        d="M18.9316 17.4279L24.1707 26.5001H27.5373C28.1362 26.5001 28.7288 26.437 29.2963 26.3298C30.1537 26.1596 30.9669 25.8696 31.7172 25.4787L22.998 10.3857L18.9316 17.4279Z"
        fill="#ffffff" />
    <path
        d="M18.1059 1.52132C15.4517 0.146941 12.1733 0.109114 9.39302 1.71676C6.71991 3.26137 5.13117 5.9597 4.8916 8.82195L9.39302 16.6206L18.1059 1.52132Z"
        fill="#ffffff" />
    <path
        d="M18.2319 17.0238L22.7648 9.16837H32.0577C31.9253 6.18003 30.3176 3.32409 27.5373 1.71644C24.8642 0.171834 21.7309 0.146616 19.1334 1.36969L10.0928 17.0238H18.2319Z"
        fill="#ffffff" />
</svg>