<?xml version="1.0" encoding="utf-8"?>
<!-- Generator: Adobe Illustrator 27.8.1, SVG Export Plug-In . SVG Version: 6.00 Build 0)  -->
<svg version="1.1" xmlns="http://www.w3.org/2000/svg" xmlns:xlink="http://www.w3.org/1999/xlink" x="0px" y="0px"
	 viewBox="0 0 2500 2500" style="enable-background:new 0 0 2500 2500;" xml:space="preserve">
<style type="text/css">
	.st0{fill:#182B19;}
	.st1{fill:#C9C8AA;}
</style>
<g id="Background">
</g>
<g id="Illustration">
	<g id="Coding_workshop_1_">
		<g>
			<g>
				<g>
					<g>
						<path class="st0" d="M1543.4,1316.7l-350.6,2.2c-2.3,0-3,2.1-3,4.1v298.3c0,28.6-199.2,102.7-201.1,99l-0.2,31.6
							c0,5.9,5.2,11.1,11.7,11.1h4.4c0,0,0.1,0,0.1,0h293.9c13.6,0,27.1-3.1,39.5-8.2l161.6-68c29.1-12.2,47.4-38.6,47.4-67.3
							v-298.6C1547.1,1318.9,1545.6,1316.7,1543.4,1316.7z"/>
						<g>
							<path class="st1" d="M1154.3,1301.6v298.3c0,29.4-18.9,56.2-48.7,68.9l-109,46.5c-7.1,3-4.7,12.6,3.2,12.6h299.5
								c13.5,0,26.8-2.7,39-7.8l120.8-50.9c30-12.6,49.1-39.5,49.1-69.1v-298.6c0-1.2-1.1-2.2-2.5-2.2h-348.9
								C1155.4,1299.4,1154.3,1300.4,1154.3,1301.6z"/>
							<path class="st0" d="M1299.3,1730.1H999.8c-5.5,0-8.7-3.6-9.5-7.2c-0.8-4,1.3-7.9,5.4-9.6l109-46.5
								c28.7-12.3,47.3-38.5,47.3-66.8v-298.3c0-2.4,2.1-4.4,4.7-4.4h348.9c2.6,0,4.7,2,4.7,4.4v298.6c0,30.3-19.8,58.2-50.4,71.1
								l-120.8,50.9C1326.8,1727.4,1313,1730.1,1299.3,1730.1z M1156.5,1301.7v298.2c0,30.1-19.6,58-50,70.9l-109,46.5
								c-2.2,0.9-3.2,2.7-2.8,4.6c0.3,1.7,1.9,3.7,5.1,3.7h299.5c13.1,0,26.3-2.6,38.1-7.6l120.8-50.9c29-12.2,47.7-38.5,47.7-67
								v-298.6c0,0-0.1,0-0.2,0h-348.9C1156.6,1301.6,1156.6,1301.6,1156.5,1301.7z"/>
						</g>
					</g>
					<g>
						<path class="st0" d="M499,1472.5l1511,3.4c13.2,0,26.4-9.9,28.1-23.1l122.8-945.5c2.9-22.9-14.8-45.7-37.6-45.1l-1493.5,7.9
							L499,1472.5z"/>
						<g>
							<path class="st1" d="M2063.9,467.6c26,0,49.5,26.4,46.1,52.2l-119.2,930.7c-1.7,13.1-15.8,24.3-29,24.3l-1484.3-2.4
								c-15.9,0-26.4-13.2-24.4-28.9l123.4-948c1.7-13.1,10.4-27.9,23.6-27.9H2063.9z"/>
							<path class="st0" d="M1961.9,1477l-1484.3-2.4c-8,0-15.2-3.1-20.2-8.8c-5.2-5.9-7.6-14.2-6.5-22.6l123.4-948
								c1.9-14.5,11.5-29.8,25.8-29.8h1463.7c13.1,0,26.2,6.3,35.9,17.3c9.6,10.9,14.1,24.5,12.5,37.4l-119.2,930.7
								C1991.3,1464.8,1976.7,1477,1961.9,1477z M600.2,469.8c-11.7,0-19.8,13.4-21.4,25.9l-123.4,948c-0.9,7.3,1,14.1,5.4,19.1
								c4.1,4.7,10.1,7.3,16.8,7.3l1484.3,2.4c12.5,0,25.3-10.6,26.8-22.3l119.2-930.7c1.5-11.6-2.7-24-11.4-33.9
								c-8.8-10-20.7-15.8-32.5-15.8H600.2z"/>
						</g>
						<path class="st0" d="M1927,1434.7l-1402.4-2.2c-7.4,0-14.1-2.9-18.7-8.2c-4.8-5.5-7-13.1-6-21l113.6-872.1
							c1.7-13.4,10.7-27.6,23.9-27.6h1383.4c12.1,0,24.2,5.8,33.1,16c8.9,10.1,13.1,22.7,11.5,34.6l-109.7,856.2
							C1954.2,1423.3,1940.7,1434.7,1927,1434.7z M637.4,508.1c-10.7,0-18,12.2-19.5,23.7l-113.6,872.1c-0.9,6.7,0.9,12.9,4.9,17.4
							c3.8,4.3,9.2,6.7,15.3,6.7l1402.4,2.2c11.4,0,23.1-9.7,24.4-20.4l109.7-856.2c1.4-10.6-2.4-21.9-10.5-31
							c-8.1-9.2-18.9-14.5-29.8-14.5H637.4z"/>
					</g>
				</g>
			</g>
			<g>
				<g>
					<path class="st0" d="M1873.4,626.3h-570c-0.6,0-1.3-0.3-1.7-0.8c-0.4-0.5-0.6-1.1-0.5-1.8l3.8-28.6c0.1-1.1,1.1-1.9,2.2-1.9
						h570c0.6,0,1.3,0.3,1.7,0.8c0.4,0.5,0.6,1.1,0.5,1.8l-3.8,28.6C1875.4,625.4,1874.5,626.3,1873.4,626.3z M1305.9,621.8h565.5
						l3.2-24.1h-565.5L1305.9,621.8z"/>
					<polygon class="st0" points="1996.4,671.1 1415.6,671.1 1419.4,642.6 2000.2,642.6 					"/>
					<path class="st0" d="M1920,720.5h-300.2c-0.6,0-1.3-0.3-1.7-0.8c-0.4-0.5-0.6-1.1-0.5-1.8l3.8-28.6c0.1-1.1,1.1-1.9,2.2-1.9
						h300.2c0.6,0,1.3,0.3,1.7,0.8c0.4,0.5,0.6,1.1,0.5,1.8l-3.8,28.6C1922.1,719.7,1921.1,720.5,1920,720.5z M1622.4,716h295.7
						l3.2-24.1h-295.7L1622.4,716z"/>
					<path class="st0" d="M1822.7,1003.2h-570c-0.6,0-1.3-0.3-1.7-0.8c-0.4-0.5-0.6-1.1-0.5-1.8l3.8-28.6c0.1-1.1,1.1-1.9,2.2-1.9
						h570c0.6,0,1.3,0.3,1.7,0.8c0.4,0.5,0.6,1.1,0.5,1.8l-3.8,28.6C1824.8,1002.4,1823.8,1003.2,1822.7,1003.2z M1255.2,998.7
						h565.5l3.2-24.1h-565.5L1255.2,998.7z"/>
					<path class="st0" d="M1514.3,1050.3h-149.3c-0.6,0-1.3-0.3-1.7-0.8c-0.4-0.5-0.6-1.1-0.5-1.8l3.8-28.6c0.1-1.1,1.1-1.9,2.2-1.9
						h135.1c1.2,0,2.2,1,2.2,2.2c0,1.2-1,2.2-2.2,2.2h-133.1l-3.2,24.1h146.8c1.2,0,2.2,1,2.2,2.2S1515.5,1050.3,1514.3,1050.3z"/>
					<path class="st0" d="M1945.7,1050.3H1587c-1.2,0-2.2-1-2.2-2.2s1-2.2,2.2-2.2h356.8l3.2-24.1h-379.4c-1.2,0-2.2-1-2.2-2.2
						c0-1.2,1-2.2,2.2-2.2h381.9c0.6,0,1.3,0.3,1.7,0.8c0.4,0.5,0.6,1.1,0.5,1.8l-3.8,28.6
						C1947.8,1049.5,1946.8,1050.3,1945.7,1050.3z"/>
					<path class="st0" d="M1939.4,1097.4h-310.3c-1.2,0-2.2-1-2.2-2.2s1-2.2,2.2-2.2h308.3l3.2-24.1H1612c-1.2,0-2.2-1-2.2-2.2
						c0-1.2,1-2.2,2.2-2.2h331.2c0.6,0,1.3,0.3,1.7,0.8c0.4,0.5,0.6,1.1,0.5,1.8l-3.8,28.6
						C1941.4,1096.6,1940.5,1097.4,1939.4,1097.4z"/>
					<path class="st0" d="M1561.9,1142.6h-211.6c-0.6,0-1.3-0.3-1.7-0.8c-0.4-0.5-0.6-1.1-0.5-1.8l3.8-28.6c0.1-1.1,1.1-1.9,2.2-1.9
						h174.1c1.2,0,2.2,1,2.2,2.2c0,1.2-1,2.2-2.2,2.2h-172.2l-3.2,24.1h209c1.2,0,2.2,1,2.2,2.2
						C1564.2,1141.6,1563.2,1142.6,1561.9,1142.6z"/>
					<polygon class="st0" points="1854.4,765.4 1284.3,765.4 1288.2,736.8 1858.2,736.8 					"/>
					<polygon class="st0" points="1894.3,812.5 1396.6,812.5 1400.4,783.9 1895,783.9 					"/>
					<path class="st0" d="M1824.7,909h-230.2c-0.6,0-1.3-0.3-1.7-0.8c-0.4-0.5-0.6-1.1-0.5-1.8l3.8-28.6c0.1-1.1,1.1-1.9,2.2-1.9
						h230.2c0.6,0,1.3,0.3,1.7,0.8c0.4,0.5,0.6,1.1,0.5,1.8l-3.8,28.6C1826.7,908.1,1825.8,909,1824.7,909z M1597,904.5h225.7
						l3.2-24.1h-225.7L1597,904.5z"/>
					<polygon class="st0" points="1887.1,953.8 1657,953.8 1660.8,925.2 1891,925.2 					"/>
					<polygon class="st0" points="1876.1,859.6 1600.8,859.6 1604.7,831 1877.2,831 					"/>
					<polygon class="st1" points="1797.4,1189.4 1227.3,1189.4 1231.2,1160.9 1801.2,1160.9 					"/>
					<path class="st0" d="M1640.5,1238.8h-300.9c-0.6,0-1.3-0.3-1.7-0.8c-0.4-0.5-0.6-1.1-0.5-1.8l3.8-28.6c0.1-1.1,1.1-1.9,2.2-1.9
						h286.8c1.2,0,2.2,1,2.2,2.2c0,1.2-1,2.2-2.2,2.2h-284.9l-3.2,24.1h298.4c1.2,0,2.2,1,2.2,2.2S1641.7,1238.8,1640.5,1238.8z"/>
					<path class="st0" d="M1798.8,1285.9h-255c-0.6,0-1.3-0.3-1.7-0.8c-0.4-0.5-0.6-1.1-0.5-1.8l3.8-28.6c0.1-1.1,1.1-1.9,2.2-1.9
						h242.1c1.2,0,2.2,1,2.2,2.2c0,1.2-1,2.2-2.2,2.2h-240.1l-3.2,24.1h252.5c1.2,0,2.2,1,2.2,2.2
						C1801,1284.9,1800,1285.9,1798.8,1285.9z"/>
					<polygon class="st1" points="1778.4,1330.8 1208.3,1330.8 1212.2,1302.2 1782.2,1302.2 					"/>
					<path class="st0" d="M1796.5,1380.1h-476c-0.6,0-1.3-0.3-1.7-0.8c-0.4-0.5-0.6-1.1-0.5-1.8l3.8-28.6c0.1-1.1,1.1-1.9,2.2-1.9
						h474.4c1.2,0,2.2,1,2.2,2.2c0,1.2-1,2.2-2.2,2.2h-472.4l-3.2,24.1h473.4c1.2,0,2.2,1,2.2,2.2
						C1798.8,1379.1,1797.8,1380.1,1796.5,1380.1z"/>
				</g>
				<g>
					<polygon class="st0" points="1211.6,953.3 1156.1,953.3 1159.8,925.8 1215.3,925.8 					"/>
					<polygon class="st0" points="1258,624 1200.1,624 1203.9,595.5 1261.8,595.5 					"/>
					<polygon class="st0" points="1263.8,580.7 1205.9,580.7 1209.7,552.1 1267.6,552.1 					"/>
					<polygon class="st0" points="1251.2,671.1 1193.7,671.1 1197.6,642.6 1255,642.6 					"/>
					<polygon class="st0" points="1242.9,718.3 1188.4,718.3 1192.2,689.7 1246.7,689.7 					"/>
					<polygon class="st0" points="1236.9,765.4 1181.4,765.4 1185.2,736.8 1240.7,736.8 					"/>
					<polygon class="st0" points="1230.2,812.5 1174.7,812.5 1178.6,783.9 1234.1,783.9 					"/>
					<polygon class="st0" points="1219.2,904.8 1164.2,904.8 1168.1,876.3 1223,876.3 					"/>
					<polygon class="st0" points="1224.1,857.7 1171.6,857.7 1175.4,829.1 1228,829.1 					"/>
					<polygon class="st0" points="1192.4,1096.4 1136.8,1096.4 1140.5,1069 1196.1,1069 					"/>
					<polygon class="st0" points="1200,1048 1145,1048 1148.8,1019.4 1203.8,1019.4 					"/>
					<polygon class="st0" points="1204.9,1000.9 1152.3,1000.9 1156.2,972.3 1208.7,972.3 					"/>
					<polygon class="st0" points="1154.9,1375.1 1099.4,1375.1 1103.1,1347.7 1158.6,1347.7 					"/>
					<polygon class="st0" points="1186.2,1140.1 1131.7,1140.1 1135.5,1111.5 1190,1111.5 					"/>
					<polygon class="st0" points="1180.1,1187.2 1124.7,1187.2 1128.5,1158.6 1184,1158.6 					"/>
					<polygon class="st0" points="1173.5,1234.3 1118,1234.3 1121.9,1205.8 1177.4,1205.8 					"/>
					<polygon class="st0" points="1162.5,1326.7 1107.5,1326.7 1111.3,1298.1 1166.3,1298.1 					"/>
					<polygon class="st0" points="1167.4,1279.6 1114.9,1279.6 1118.7,1251 1171.3,1251 					"/>
				</g>
				<g>
					<polygon class="st0" points="963.6,574.5 689.2,574.5 692.9,547 967.3,547 					"/>
					<path class="st0" d="M1011.8,624.4H722.6c-0.6,0-1.3-0.3-1.7-0.8c-0.4-0.5-0.6-1.1-0.5-1.8l3.8-28.6c0.1-1.1,1.1-1.9,2.2-1.9
						h289.2c0.6,0,1.3,0.3,1.7,0.8c0.4,0.5,0.6,1.1,0.5,1.8l-3.8,28.6C1013.9,623.5,1013,624.4,1011.8,624.4z M725.1,619.9h284.7
						l3.2-24.1H728.4L725.1,619.9z"/>
					<path class="st0" d="M1087.4,671.5h-337c-0.6,0-1.3-0.3-1.7-0.8c-0.4-0.5-0.6-1.1-0.5-1.8l3.8-28.6c0.1-1.1,1.1-1.9,2.2-1.9
						h337c0.6,0,1.3,0.3,1.7,0.8c0.4,0.5,0.6,1.1,0.5,1.8l-3.8,28.6C1089.5,670.7,1088.6,671.5,1087.4,671.5z M753,667h332.5
						l3.2-24.1H756.3L753,667z"/>
					<path class="st0" d="M1130.7,718.6H849.4c-0.6,0-1.3-0.3-1.7-0.8c-0.4-0.5-0.6-1.1-0.5-1.8l3.8-28.6c0.1-1.1,1.1-1.9,2.2-1.9
						h281.2c0.6,0,1.3,0.3,1.7,0.8c0.4,0.5,0.6,1.1,0.5,1.8l-3.8,28.6C1132.7,717.8,1131.8,718.6,1130.7,718.6z M852,714.1h276.7
						l3.2-24.1H855.2L852,714.1z"/>
					<polygon class="st0" points="860.8,951.4 638.5,951.4 642.2,923.9 864.5,923.9 					"/>
					<path class="st0" d="M864.3,1001.3H701.7c-0.6,0-1.3-0.3-1.7-0.8c-0.4-0.5-0.6-1.1-0.5-1.8l3.8-28.6c0.1-1.1,1.1-1.9,2.2-1.9
						h162.5c0.6,0,1.3,0.3,1.7,0.8c0.4,0.5,0.6,1.1,0.5,1.8l-3.8,28.6C866.3,1000.5,865.4,1001.3,864.3,1001.3z M704.3,996.8h158
						l3.2-24.1h-158L704.3,996.8z"/>
					<path class="st0" d="M922.5,1048.4H766.9c-0.6,0-1.3-0.3-1.7-0.8c-0.4-0.5-0.6-1.1-0.5-1.8l3.8-28.6c0.1-1.1,1.1-1.9,2.2-1.9
						h155.6c0.6,0,1.3,0.3,1.7,0.8c0.4,0.5,0.6,1.1,0.5,1.8l-3.8,28.6C924.5,1047.6,923.6,1048.4,922.5,1048.4z M769.4,1044h151.1
						l3.2-24.1H772.7L769.4,1044z"/>
					<path class="st0" d="M1025.5,1095.5H828.6c-0.6,0-1.3-0.3-1.7-0.8c-0.4-0.5-0.6-1.1-0.5-1.8l3.8-28.6c0.1-1.1,1.1-1.9,2.2-1.9
						h196.9c0.6,0,1.3,0.3,1.7,0.8c0.4,0.5,0.6,1.1,0.5,1.8l-3.8,28.6C1027.5,1094.7,1026.6,1095.5,1025.5,1095.5z M831.1,1091.1
						h192.4l3.2-24.1H834.4L831.1,1091.1z"/>
					<polygon class="st0" points="866.1,763.5 667.4,763.5 671.2,734.9 869.9,734.9 					"/>
					<path class="st0" d="M1113.1,812.8H806c-0.6,0-1.3-0.3-1.7-0.8c-0.4-0.5-0.6-1.1-0.5-1.8l3.8-28.6c0.1-1.1,1.1-1.9,2.2-1.9
						h307.1c0.6,0,1.3,0.3,1.7,0.8c0.4,0.5,0.6,1.1,0.5,1.8l-3.8,28.6C1115.1,812,1114.2,812.8,1113.1,812.8z M808.5,808.4h302.6
						l3.2-24.1H811.8L808.5,808.4z"/>
					<polygon class="st0" points="855.9,857.7 657.2,857.7 661,829.1 859.8,829.1 					"/>
					<path class="st0" d="M1102.9,907H795.8c-0.6,0-1.3-0.3-1.7-0.8c-0.4-0.5-0.6-1.1-0.5-1.8l3.8-28.6c0.1-1.1,1.1-1.9,2.2-1.9
						h307.1c0.6,0,1.3,0.3,1.7,0.8c0.4,0.5,0.6,1.1,0.5,1.8l-3.8,28.6C1104.9,906.2,1104,907,1102.9,907z M798.4,902.5h302.6
						l3.2-24.1H801.6L798.4,902.5z"/>
					<polygon class="st0" points="860.3,1139.9 613.2,1139.9 616.9,1112.4 864,1112.4 					"/>
					<path class="st0" d="M1020.3,1189.8H616.8c-0.6,0-1.3-0.3-1.7-0.8c-0.4-0.5-0.6-1.1-0.5-1.8l3.8-28.6c0.1-1.1,1.1-1.9,2.2-1.9
						h403.5c0.6,0,1.3,0.3,1.7,0.8c0.4,0.5,0.6,1.1,0.5,1.8l-3.8,28.6C1022.3,1189,1021.4,1189.8,1020.3,1189.8z M619.3,1185.3h399
						l3.2-24.1h-399L619.3,1185.3z"/>
					<path class="st0" d="M1018.9,1236.9H787.2c-0.6,0-1.3-0.3-1.7-0.8c-0.4-0.5-0.6-1.1-0.5-1.8l3.8-28.6c0.1-1.1,1.1-1.9,2.2-1.9
						h231.6c0.6,0,1.3,0.3,1.7,0.8c0.4,0.5,0.6,1.1,0.5,1.8l-3.8,28.6C1020.9,1236.1,1020,1236.9,1018.9,1236.9z M789.8,1232.4
						h227.1l3.2-24.1H793L789.8,1232.4z"/>
					<polygon class="st0" points="921.7,1328.9 766.8,1328.9 754.3,1300.3 925.6,1300.3 					"/>
					<path class="st0" d="M1065.2,1280.3H843c-0.6,0-1.3-0.3-1.7-0.8c-0.4-0.5-0.6-1.1-0.5-1.8l3.8-28.6c0.1-1.1,1.1-1.9,2.2-1.9
						H1069c0.6,0,1.3,0.3,1.7,0.8c0.4,0.5,0.6,1.1,0.5,1.8l-3.8,28.6C1067.3,1279.5,1066.3,1280.3,1065.2,1280.3z M845.6,1275.8
						h217.7l3.2-24.1H848.8L845.6,1275.8z"/>
					<path class="st0" d="M967.5,1378.3H790.2c-1.2,0-2.2-1-2.2-2.2c0-1.2,1-2.2,2.2-2.2h175.3l3.2-24.1H782c-1.2,0-2.2-1-2.2-2.2
						c0-1.2,1-2.2,2.2-2.2h189.4c0.6,0,1.3,0.3,1.7,0.8c0.4,0.5,0.6,1.1,0.5,1.8l-3.8,28.6C969.6,1377.4,968.7,1378.3,967.5,1378.3z
						"/>
				</g>
			</g>
		</g>
		<g>
			<g>
				<g>
					<g>
						<polygon class="st1" points="2083.5,2004.8 2077.9,2058.1 2042.1,2062.4 2042.1,1999.1 						"/>
						<path class="st0" d="M2042.1,2064.6c-0.5,0-1.1-0.2-1.5-0.6c-0.5-0.4-0.7-1-0.7-1.7v-63.3c0-0.6,0.3-1.3,0.8-1.7
							c0.5-0.4,1.1-0.6,1.8-0.5l41.4,5.7c1.2,0.2,2,1.2,1.9,2.4l-5.6,53.4c-0.1,1-0.9,1.9-2,2l-35.9,4.2
							C2042.3,2064.6,2042.2,2064.6,2042.1,2064.6z M2044.3,2001.6v58.2l31.6-3.7l5.2-49.5L2044.3,2001.6z"/>
					</g>
					<g>
						<g>
							<path class="st1" d="M2036.4,2155.3c14.9,2.1,39.5,4,68.2,0c9.4-1.3,15.7-10.5,13.4-19.8c-6.3-25.9-17.2-75.1-36-97.9
								l-4.7,12.4l-6.4-11.6c-0.9-1.6-2.5-2.7-4.3-2.9l-14.1-1.8c-2.9-0.4-5.7,1.6-6.3,4.5l-2.2,10.7l-8.6-14.1l-3.8,52.5
								c-0.8,11.2-2.5,22.4-5.1,33.4l-3.8,16.6C2021.7,2146,2027.7,2154.1,2036.4,2155.3z"/>
							<path class="st0" d="M2070.3,2159.9c-13.7,0-25.4-1.1-34.2-2.4c-9.8-1.4-16.8-10.6-15.5-20.6l3.9-16.8c2.5-10.8,4.2-22,5-33
								l3.8-52.5c0.1-1,0.8-1.8,1.7-2c0.9-0.2,1.9,0.2,2.4,1l5.6,9.2l1.1-5.2c0.8-4,4.7-6.8,8.8-6.3l14.1,1.8c2.5,0.3,4.7,1.8,5.9,4
								l4.1,7.4l3-7.8c0.3-0.7,0.9-1.3,1.7-1.4c0.8-0.1,1.6,0.2,2.1,0.8c17.8,21.6,28.6,66.4,35.1,93.1l1.4,5.6
								c1.2,5,0.3,10.4-2.6,14.7c-2.9,4.3-7.5,7.1-12.6,7.8C2092.5,2159.2,2080.8,2159.9,2070.3,2159.9z M2037.3,2041.9l-3.3,45.6
								c-0.8,11.3-2.5,22.7-5.1,33.7l-3.8,16.6c-0.9,7.3,4.3,14.3,11.7,15.4c15.2,2.2,39.4,3.9,67.6,0c3.9-0.5,7.3-2.7,9.5-5.9
								c2.2-3.3,2.9-7.3,2-11.1l-1.4-5.6c-6.1-25.1-16-66.4-31.8-88.2l-3.2,8.6c-0.3,0.8-1.1,1.4-1.9,1.4c-0.9,0-1.7-0.4-2.1-1.1
								l-6.4-11.6c-0.5-1-1.5-1.6-2.6-1.8l-14.1-1.8c-1.8-0.2-3.4,1-3.8,2.7l-2.2,10.7c-0.2,0.9-0.9,1.6-1.8,1.7
								c-0.9,0.2-1.8-0.3-2.3-1L2037.3,2041.9z"/>
						</g>
						<path class="st0" d="M2069.2,2144c-18.2,0-29.3-3.9-30-4.1c-1.2-0.4-1.8-1.7-1.3-2.9c0.4-1.2,1.7-1.8,2.9-1.3
							c0.2,0.1,23.9,8.4,58.8,0.3c1.2-0.3,2.4,0.5,2.7,1.7s-0.5,2.4-1.7,2.7C2088.7,2143.1,2078.1,2144,2069.2,2144z"/>
						<path class="st0" d="M2086.5,2103C2086.5,2103,2086.5,2103,2086.5,2103l-33.7-1.1c-1.2,0-2.2-1.1-2.2-2.3
							c0-1.2,1.1-2.2,2.3-2.2l33.6,1.1c1.2,0,2.2,1.1,2.2,2.3C2088.7,2102.1,2087.7,2103,2086.5,2103z"/>
					</g>
				</g>
				<g>
					<g>
						<polygon class="st1" points="1915.6,1976.3 1910.2,2054.2 1867,2054.2 1865,1976.3 						"/>
						<path class="st0" d="M1910.2,2056.5H1867c-1.2,0-2.2-1-2.2-2.2l-2-77.9c0-0.6,0.2-1.2,0.6-1.6c0.4-0.4,1-0.7,1.6-0.7h50.5
							c0.6,0,1.2,0.3,1.6,0.7c0.4,0.5,0.6,1.1,0.6,1.7l-5.4,77.9C1912.3,2055.6,1911.4,2056.5,1910.2,2056.5z M1869.2,2052h38.9
							l5.1-73.4h-45.8L1869.2,2052z"/>
					</g>
					<g>
						<g>
							<path class="st1" d="M1921.5,2098.2c0.1,7.4-4.9,13.8-12,15.5c-24.8,5.8-80.7,18.7-96.6,21.1c-20.7,3.1-46.1-3.3-57-15.5
								c-10.9-12.2,24.5-41.3,41.3-51.8c25-15.7,48.9-46.8,59-48.2c10.1-1.4,28.8,28,28.8,28l30.7-13
								C1915.6,2034.4,1920.9,2060.8,1921.5,2098.2z"/>
							<path class="st0" d="M1802,2137.9c-19,0-38.6-6.7-47.9-17c-2.1-2.4-3-5.4-2.5-8.9c2.1-15.3,30.7-37.8,44.2-46.4
								c12.3-7.7,24.2-19.1,34.7-29.1c11.3-10.8,19.5-18.6,25.2-19.4c10.1-1.4,25.1,20,30,27.4l29-12.2c0.6-0.3,1.3-0.2,1.9,0.1
								c0.6,0.3,1,0.9,1.1,1.5c0.1,0.3,5.4,27.1,5.9,64.2c0.1,8.4-5.7,15.8-13.7,17.7c-23.7,5.6-80.7,18.8-96.8,21.2
								C1809.5,2137.6,1805.8,2137.9,1802,2137.9z M1856.8,2021.6c-0.2,0-0.3,0-0.5,0c-4.3,0.6-13.3,9.1-22.8,18.2
								c-10.7,10.2-22.7,21.7-35.4,29.7c-13.8,8.7-40.4,30.3-42.2,43.2c-0.3,2.2,0.2,3.9,1.4,5.3c10.2,11.4,34.4,17.8,55,14.7
								c15.9-2.4,72.7-15.6,96.4-21.1c6.1-1.4,10.4-7,10.3-13.3c-0.4-30-4-53.1-5.4-60.7l-28.1,11.9c-1,0.4-2.2,0.1-2.7-0.9
								C1875.7,2037.1,1863,2021.6,1856.8,2021.6z"/>
						</g>
						<path class="st0" d="M1802.3,2118.8c-13.5,0-25.6-2.2-34.3-7.9c-1-0.7-1.3-2.1-0.6-3.1c0.7-1,2.1-1.3,3.1-0.6
							c32,21,117.3-10.1,134-16.5c1.2-0.4,2.4,0.1,2.9,1.3c0.4,1.2-0.1,2.4-1.3,2.9C1888.4,2101.6,1839.9,2118.8,1802.3,2118.8z"/>
						<path class="st0" d="M1850.2,2076.4c-0.6,0-1.1-0.2-1.6-0.6l-17.9-17.5c-0.9-0.9-0.9-2.3,0-3.2c0.9-0.9,2.3-0.9,3.2,0
							l17.9,17.5c0.9,0.9,0.9,2.3,0,3.2C1851.4,2076.2,1850.8,2076.4,1850.2,2076.4z"/>
					</g>
				</g>
				<g>
					<g>
						<path class="st1" d="M2095.7,1468.5c0,0,13.4,243.5,20.4,327.6c7,84.1-16.4,219.2-16.4,219.2l-66.6-3.5
							c0,0-4.6-164.3-9.5-209.9c0,0-28.1-61.9-36.5-117c-8.3-55.2-36.7-142.3-36.7-142.3s-23.1,434.9-25.3,469.1
							c0,0-52.2,2.3-70.9-9.5c0,0-33.2-158.6-28.4-244.9c4.8-86.3-0.5-300.6-0.5-300.6L2095.7,1468.5z"/>
						<path class="st0" d="M2099.7,2017.5c0,0-0.1,0-0.1,0l-66.6-3.5c-1.2-0.1-2.1-1-2.1-2.2c0-1.6-4.6-163.9-9.5-209.4
							c-2.2-5-28.5-64.5-36.5-117.3c-6.4-42.4-25-104.6-33-130.2c-3.8,71-22.7,426.3-24.6,456.8c-0.1,1.1-1,2-2.1,2.1
							c-2.2,0.1-53.1,2.2-72.2-9.9c-0.5-0.3-0.9-0.8-1-1.4c-0.3-1.6-33.2-159.9-28.5-245.4c4.7-85.2-0.4-298.3-0.5-300.5
							c0-0.6,0.2-1.2,0.7-1.6c0.4-0.4,1-0.7,1.7-0.6l270.4,11.9c1.1,0.1,2.1,1,2.1,2.1c0.1,2.4,13.4,244.4,20.4,327.5
							c6.9,83.4-16.2,218.4-16.4,219.8C2101.8,2016.7,2100.8,2017.5,2099.7,2017.5z M2035.3,2009.7l62.6,3.3
							c2.8-16.9,22.4-139.3,16-216.7c-6.6-79.1-19-302-20.3-325.6l-266-11.7c0.6,23.8,4.9,217.9,0.4,298.4
							c-4.5,81.5,25.4,230,28.2,243.3c16.5,9.6,57.3,9,66.9,8.8c2.8-46,24.9-462.7,25.2-467c0.1-1.1,0.9-2,1.9-2.1
							c1.1-0.1,2.1,0.5,2.4,1.5c0.3,0.9,28.6,87.9,36.8,142.7c8.2,54.2,36,115.8,36.3,116.4c0.1,0.2,0.2,0.4,0.2,0.7
							C2030.5,1844,2034.8,1990.5,2035.3,2009.7z"/>
					</g>
					<path class="st0" d="M2056.3,1804.1h-20.4c-1.2,0-2.2-1-2.2-2.2s1-2.2,2.2-2.2h20.4c1.2,0,2.2,1,2.2,2.2
						S2057.5,1804.1,2056.3,1804.1z"/>
					<path class="st0" d="M1890.9,1930.5c-1.2,0-2.2-1-2.2-2.2c-0.7-39-45.4-112.4-45.8-113.2c-0.6-1.1-0.3-2.4,0.7-3.1
						c1-0.6,2.4-0.3,3.1,0.7c1.9,3.1,45.7,75.2,46.5,115.4C1893.1,1929.5,1892.2,1930.5,1890.9,1930.5
						C1890.9,1930.5,1890.9,1930.5,1890.9,1930.5z"/>
				</g>
			</g>
			<g>
				<g>
					<path class="st1" d="M1784.3,1083.3c-3.7-0.3-34.4,52.4-48.8,77.6c-4.1,7.2-13.3,9.5-20.3,5.2l-112.8-69.7
						c-9.2-5.7-17.1-13.3-23.1-22.4c-9.4-14.4-15-29-27.6-39.2c-10.3-8.3-20.7-17.5-23.8-19.9c-1.9-1.5-11,4.9-4.2,16.4
						c2.1,3.5,9.9,10.6,12.1,13.9c3.4,5.2,3.4,12-0.4,16.9c-4.1,5.2-7.4,13.5-2.9,25.1c6.7,17.2,22,21.4,30.6,22.4
						c4.3,0.5,8.3,2.6,11.2,5.9l104.1,119.3c16.2,18.5,43.2,22.7,64.1,9.9c33.9-20.7,77.5-62.4,108.9-115L1784.3,1083.3z"/>
					<path class="st0" d="M1716.3,1254.4c-14.7,0-29.3-6.2-39.6-18.1L1572.6,1117c-2.5-2.9-6-4.7-9.8-5.2c-9-1-25.2-5.5-32.4-23.8
						c-5-12.8-1-21.9,3.2-27.3c3.2-4.1,3.3-9.8,0.3-14.3c-0.9-1.3-3.1-3.7-5.3-6c-2.8-2.9-5.6-5.9-6.9-8c-4.9-8.3-2.5-14.9,1-18
						c2.3-2,4.9-2.5,6.5-1.3c1.3,1,4,3.3,7.3,6.1c4.5,3.8,10.6,9,16.5,13.8c9.2,7.5,14.8,17.1,20.6,27.2c2.3,4.1,4.8,8.3,7.5,12.5
						c5.7,8.7,13.4,16.2,22.4,21.7l112.9,69.7c2.9,1.8,6.2,2.3,9.5,1.5c3.3-0.8,6-2.9,7.7-5.8c45.4-79.1,48.7-78.8,50.9-78.7
						c0.4,0,0.8,0.2,1.1,0.4l67.1,46.4c1,0.7,1.2,2,0.6,3c-33.8,56.6-78.8,97-109.6,115.8
						C1735.2,1251.8,1725.7,1254.4,1716.3,1254.4z M1526.9,1017c-0.6,0.2-1.8,1.1-2.6,2.7c-1,2-1.6,5.5,1.4,10.5
						c1,1.7,3.8,4.6,6.3,7.2c2.4,2.5,4.6,4.9,5.8,6.6c4,6.1,3.8,13.9-0.5,19.5c-5.1,6.6-6,14.3-2.6,23c6.3,16.1,20.7,20.1,28.8,21
						c4.9,0.6,9.4,2.9,12.6,6.6l104.1,119.3c15.5,17.7,41.2,21.7,61.3,9.5c30.1-18.4,73.8-57.5,107-112.5l-64.2-44.4
						c-4,4.1-18,25.7-46.8,76c-2.3,4-6,6.8-10.4,7.9c-4.4,1.1-9,0.4-12.9-2l-112.9-69.7c-9.5-5.9-17.7-13.8-23.8-23
						c-2.8-4.3-5.3-8.5-7.6-12.7c-5.6-9.8-10.9-19-19.5-26c-6-4.8-12.1-10.1-16.6-13.9C1530.6,1020.1,1528.2,1018,1526.9,1017z"/>
				</g>
				<g>
					<path class="st0" d="M2171.6,1181.3c0,0,7.5-138.7-97.4-177.7c-81.2-30.2-184.9-17.2-217.4-5.9
						c-80,27.8-119.4,133.5-119.4,133.5l93.8,13.2c0,0-28.3,303.8-16,371.5c0,0,75.5,8.9,107.5-3.8c32-12.7,137.3-30.5,187.6-7.2
						l-9.1-324.9L2171.6,1181.3z"/>
					<path class="st1" d="M1868.4,1521.2c-26.9,0-51.7-2.9-53.5-3.1c-1-0.1-1.8-0.9-1.9-1.8c-11.8-65.1,13.1-340.7,15.8-370
						l-91.7-12.9c-0.7-0.1-1.3-0.5-1.6-1.1s-0.4-1.3-0.2-1.9c0.4-1.1,40.7-107,120.8-134.8c35.5-12.3,139.4-23.6,218.9,5.9
						c43.6,16.2,74.5,52.5,89.4,104.9c11.2,39.5,9.5,74.6,9.4,75c-0.1,1.2-1,2.1-2.2,2.1c0,0,0,0,0,0l-68.2-1.3l9.1,322.6
						c0,0.8-0.4,1.5-1,1.9c-0.6,0.4-1.5,0.5-2.2,0.2c-50.2-23.2-154.3-5.2-185.8,7.3C1909.7,1519.6,1888.5,1521.2,1868.4,1521.2z
						 M1817.1,1513.9c11.2,1.2,76.2,7.4,104.7-3.9c31.3-12.4,133.6-30.1,186.1-8.6l-9-321.4c0-0.6,0.2-1.2,0.6-1.6
						c0.4-0.4,1.1-0.6,1.6-0.7l68.3,1.3c0.3-17.6-1-138-96-173.3c-78.5-29.2-180.9-18-215.9-5.9c-71.2,24.7-110.3,113.2-117,129.6
						l91,12.8c1.2,0.2,2,1.2,1.9,2.4C1833.1,1147.6,1805.7,1444.1,1817.1,1513.9z"/>
				</g>
				<path class="st1" d="M2040.9,1440.2c-0.1,0-0.3,0-0.4,0c-122.4-21.8-158.2-107.6-158.6-108.4c-0.5-1.1,0.1-2.4,1.2-2.9
					c1.1-0.5,2.4,0.1,2.9,1.2c0.3,0.8,35.3,84.4,155.2,105.7c1.2,0.2,2,1.4,1.8,2.6C2042.9,1439.4,2041.9,1440.2,2040.9,1440.2z"/>
				<g>
					<polygon class="st1" points="1817.1,1293 1970.8,1293 1922.6,1120.3 1769,1120.3 					"/>
					<path class="st0" d="M1970.8,1295.3h-153.6c-1,0-1.9-0.7-2.1-1.6l-48.1-172.8c-0.2-0.7-0.1-1.4,0.4-1.9
						c0.4-0.6,1.1-0.9,1.8-0.9h153.6c1,0,1.9,0.7,2.1,1.6l48.1,172.8c0.2,0.7,0.1,1.4-0.4,1.9
						C1972.1,1294.9,1971.5,1295.3,1970.8,1295.3z M1818.8,1290.8h149l-46.9-168.3h-149L1818.8,1290.8z"/>
				</g>
				<g>
					<path class="st1" d="M2153.4,1181.4l-67.6-3.1c0,0-0.5,57.3-6.6,58.3c-21.7,3.6-67.2,3.8-96.8,0.2
						c-10.3-1.3-18.5-9.2-20.4-19.5c-1.5-7.8-5.6-16.9-16.2-23.4c-10.2-6.3-0.1,13.6-9.7,26.4c-5.1,6.9-21.4,3.8-43.6-1.3
						c-22.2-5.2-27.8,18.7-3,33.1c27,15.6,44.1,13.9,52.7,15.7c17.1,3.6,168.5,27.5,191.9,14.7
						C2152.1,1272.8,2153.4,1181.4,2153.4,1181.4z"/>
					<path class="st0" d="M2104.7,1288.7c-54,0-154.4-16.7-163-18.6c-1.7-0.4-3.9-0.6-6.5-0.9c-10.1-1-25.3-2.6-46.9-15.1
						c-15.7-9.1-19.5-21.5-16.4-29.3c2.3-5.7,9-10.8,21-8c20,4.7,36.9,8,41.3,2.2c4.3-5.7,4.2-13.3,4.2-18.8c0-4.6-0.1-7.9,2.4-9.2
						c2.1-1.2,4.5,0.1,6.1,1.1c9.3,5.8,15.2,14.4,17.2,24.9c1.8,9.4,9.2,16.5,18.5,17.7c29.2,3.5,73.8,3.5,95.8-0.2
						c2.9-3.5,4.9-31.6,5.1-56.2c0-0.6,0.3-1.2,0.7-1.6c0.4-0.4,1-0.6,1.6-0.6l67.6,3.1c1.2,0.1,2.1,1.1,2.1,2.3
						c-0.1,9.5-1.8,93-20.5,103.2C2129.9,1287.5,2118.9,1288.7,2104.7,1288.7z M1886.6,1220.6c-5.2,0-9,2.1-10.5,5.9
						c-2.4,6,1.2,16,14.5,23.7c20.8,12.1,35.4,13.5,45.1,14.5c2.7,0.3,5,0.5,6.9,0.9c17.5,3.7,167.9,27.2,190.3,15
						c13.5-7.4,17.6-70.6,18.1-97.2l-63.1-2.9c-0.1,4.7-0.3,15.6-1,26.6c-1.7,28.3-4.6,31.1-7.4,31.6c-22.2,3.7-67.8,3.8-97.4,0.2
						c-11.2-1.4-20.2-9.9-22.3-21.3c-1.8-9.4-6.9-16.8-15.2-21.9c-0.7-0.4-1.2-0.7-1.5-0.8c-0.2,1-0.2,3.4-0.2,5.1
						c0,5.8,0.1,14.6-5,21.5c-6,8.1-22.8,4.9-45.9-0.5C1890.1,1220.8,1888.3,1220.6,1886.6,1220.6z"/>
				</g>
			</g>
			<g>
				<g>
					<g>
						<path class="st1" d="M1920.7,1000.2c0,0,17.5-10.8,17.3-17.1l5-32.3c0-3-1.8-5.6-4.5-6.6l-20.7-7.1c-2.6-0.9-4.3-3.5-4.2-6.4
							l1.6-25.7l-8.1-7.2c-0.6-0.6-0.7-1.5-0.2-2.2l12.8-15.6c4.2-5.9,8.4-20,11.8-19c0,0,73-8.4,76.5,28.4c0.5,5.3-1.1,10.6-4.2,15
							l-6.5,9.1c-6.5,9.2-9.9,20.4-8.8,31.6c0.2,2.3,3.3,17.3,5.3,27.2c1.2,5.6,4.3,10.6,8.8,14.1c5.7,4.4,12.6,10,11.5,10.3
							c0,0-8.1,5.9-20.8,11.2c-22.7,9.3-48.4,7-69.4-5.8L1920.7,1000.2z"/>
						<path class="st0" d="M1964.7,1015.9c-14.5,0-29-4-41.7-11.8l-3.5-2.1c-0.7-0.4-1.1-1.1-1.1-1.9c0-0.8,0.4-1.5,1.1-1.9
							c7.9-4.9,16.3-12,16.3-15.1c0-0.1,0-0.3,0-0.4l5-32.1c0-1.9-1.2-3.7-3-4.3l-20.7-7.1c-3.6-1.3-5.9-4.8-5.7-8.6l1.5-24.6
							l-7.3-6.5c-1.5-1.4-1.7-3.7-0.4-5.3l12.8-15.6c1.4-1.9,2.9-5.3,4.4-8.5c3.1-6.6,5.6-11.9,9.2-11.4c4.7-0.5,48.1-4.7,68.4,11.7
							c6.1,4.9,9.5,11.2,10.2,18.7c0.6,5.7-1.1,11.6-4.6,16.5l-6.5,9.1c-6.4,9.1-9.4,19.8-8.4,30.1c0.1,1,0.9,5.8,5.3,27
							c1,5.1,3.9,9.6,8,12.8c12.9,9.9,12.7,10.8,12.5,12.4c-0.1,0.6-0.5,1.2-1,1.5c-0.3,0.2-8.4,6.2-21.3,11.5
							C1984.9,1014,1974.8,1015.9,1964.7,1015.9z M1924.9,1000.1l0.4,0.3c20.4,12.5,45.6,14.6,67.4,5.6c8.9-3.7,15.6-7.7,18.6-9.7
							c-1.3-1.2-4.1-3.6-9.8-8c-5-3.8-8.4-9.3-9.6-15.5c-3.3-16.4-5.1-25.6-5.3-27.5c-1.2-11.4,2.1-23.1,9.2-33.1l6.5-9.1
							c2.9-4.1,4.2-8.9,3.8-13.5c-0.6-6.3-3.4-11.5-8.6-15.6c-19.6-15.8-65-10.8-65.5-10.7c-0.2,0-0.3,0-0.4,0
							c-1.2,0.9-3.5,5.8-4.9,8.8c-1.6,3.4-3.2,6.9-4.9,9.3l-12.5,15.3l7.6,6.8c0.5,0.5,0.8,1.1,0.7,1.8l-1.6,25.7
							c-0.1,1.8,1,3.5,2.7,4.1l20.7,7.1c3.7,1.3,6.1,4.8,6,8.7c0,0.1,0,0.2,0,0.3l-5,32.1C1940.2,989.1,1930.3,996.5,1924.9,1000.1z
							"/>
					</g>
					<path class="st0" d="M1929.2,805c16.6-0.9-4.4,16.3,57.2-1.4c24.5-7.1,11.9,21.7,18.3,19.9c23.5-6.7,22.7-6.5,34.1-3.4
						c7.6,2.1,12.4,16.2,10.9,26.8c-2,13.9-17.6,36-31.6,59.4c-7.2,12.1-20.1,13.2-35.6-4.8c-1.7-1.9,6.8-13.2,2.4-18.1
						c-11.4-12.7-16.5,6.5-25.8,0.6c-8.9-5.7-12.5-9.3-21.9-17.9c-11.3-10.4-30.4,5.8-37-17.6C1896.9,836.4,1906.4,806.2,1929.2,805
						z"/>
				</g>
			</g>
		</g>
		<g>
			<g>
				<g>
					<g>
						<g>
							<path class="st1" d="M1384.7,2079.8c0,0,5.1,0,10-3.4c15.1-10.7,46.5-34.6,67.9-31.6c35.9,5,40.1,34.3,40.1,34.3
								s30.3-1.1,29.7,19c-0.5,15.5-9.3,35.1-33.7,45.9c-33.4,14.7-66.8,26-103.7,1.8c-7.2-4.7-15.7-6.9-24.2-6
								c-20.7,2.1-329.8,8.7-329.8,8.7c-70.7,0-135.6-39.2-168.4-101.8l-65.1-124.3l74.6-208.6l117,271.9
								C1055.8,2063.1,1378.8,2081.2,1384.7,2079.8z"/>
							<path class="st0" d="M1440,2162c-15,0-30.4-3.9-46.3-14.4c-6.8-4.5-14.9-6.5-22.7-5.7c-20.6,2.1-317.4,8.5-330,8.8
								c-71.8,0-137.1-39.5-170.4-103l-65.1-124.3c-0.3-0.6-0.3-1.2-0.1-1.8l74.6-208.6c0.3-0.9,1.1-1.4,2-1.5
								c0.9-0.1,1.8,0.5,2.1,1.3l116.9,271.7c55,74.3,370.8,94.6,383.3,93c0.2,0,0.2,0,0.4,0c0.1,0,4.5-0.1,8.7-3l3.5-2.5
								c16.9-12.1,45.2-32.4,66-29.5c31.7,4.4,39.9,27.4,41.6,34.3c4.9,0.1,17.8,1,25.1,8.2c3.5,3.5,5.2,7.9,5,13.1
								c-0.2,7.7-3.4,33.9-35.1,47.9C1480.6,2154.4,1460.7,2162,1440,2162z M1374.4,2137.4c7.6,0,15.3,2.3,21.8,6.6
								c36.1,23.7,68.7,12.6,101.6-2c29.2-12.9,32.2-36.9,32.4-43.9c0.1-4-1.1-7.2-3.7-9.8c-7.5-7.4-23.5-6.9-23.7-6.9
								c0,0-0.1,0-0.1,0c-1.1,0-2-0.8-2.2-1.9c-0.2-1.1-4.5-27.7-38.2-32.4c-19-2.6-47.5,17.8-62.8,28.7l-3.5,2.5
								c-5.4,3.8-11.1,3.8-11.3,3.8c-7.7,0.4-88.5-4-174.1-17.5c-80.8-12.8-183.4-36.6-213.3-77.5c-0.1-0.1-0.2-0.3-0.2-0.4
								l-114.8-266.7l-72.4,202.3l64.7,123.4c32.6,62.1,96.3,100.7,166.4,100.7c3-0.1,309.2-6.7,329.6-8.7
								C1371.8,2137.4,1373.1,2137.4,1374.4,2137.4z"/>
						</g>
						<g>
							<g>
								<path class="st1" d="M1303.5,2023.9l29.9-52.3l24.5,15.9c1.4,0.9,2.5,2.1,3.3,3.5l1.5,2.5c1.8,3.2,5.3,5.1,8.9,5.1
									c2,0,3.9,0.5,5.6,1.6l182.5,118.2c1.5,1,2.9,2.1,4.1,3.5l36.9,40.9l-51.3-11.6c-2.8-0.6-5.5-1.6-8.1-3l-192-100.4
									c-1.6-0.9-3-2.1-4-3.7l-0.2-0.4c-1.9-3-5.2-4.9-8.7-4.9l-1.8,0c-1.6,0-3.2-0.4-4.7-1.2L1303.5,2023.9z"/>
								<path class="st0" d="M1600.7,2165c-0.2,0-0.3,0-0.5-0.1l-51.3-11.6c-3-0.7-5.9-1.7-8.6-3.2l-192-100.4c-2-1-3.7-2.6-4.9-4.5
									l-0.2-0.4c-1.4-2.4-4-3.8-6.7-3.8c0,0,0,0,0,0l-1.8,0c0,0,0,0,0,0c-2,0-3.9-0.5-5.7-1.4l-26.3-13.8
									c-0.5-0.3-0.9-0.8-1.1-1.3c-0.2-0.6-0.1-1.2,0.2-1.7l29.9-52.3c0.3-0.5,0.8-0.9,1.4-1.1c0.6-0.1,1.2,0,1.7,0.3l24.5,15.9
									c1.6,1.1,3,2.5,4,4.2l1.5,2.5c1.4,2.5,4,4,6.9,4c0.1,0,0.2,0,0.2,0c2.4,0,4.7,0.7,6.7,2l182.5,118.2
									c1.7,1.1,3.2,2.4,4.5,3.9l36.9,40.9c0.7,0.7,0.8,1.8,0.3,2.6C1602.2,2164.6,1601.4,2165,1600.7,2165z M1336.4,2036.6
									c4.3,0,8.3,2.3,10.5,5.9l0.2,0.4c0.8,1.2,1.8,2.2,3.1,2.9l192,100.4c2.4,1.2,4.9,2.2,7.5,2.8l44.5,10l-32.2-35.7
									c-1.1-1.2-2.3-2.2-3.6-3.1L1376,2002.1c-1.3-0.9-2.8-1.3-4.4-1.3c0,0-0.1,0-0.1,0c-4.4,0-8.5-2.4-10.7-6.2l-1.5-2.5
									c-0.6-1.1-1.5-2-2.6-2.7l-22.6-14.6l-27.6,48.3l24.3,12.7c1.1,0.6,2.4,0.9,3.7,0.9L1336.4,2036.6
									C1336.3,2036.6,1336.3,2036.6,1336.4,2036.6z"/>
							</g>
							<path class="st0" d="M1550.5,2143.7c-0.3,0-0.7-0.1-1-0.2c-1.1-0.6-1.5-1.9-1-3l11-21.2c0.6-1.1,1.9-1.5,3-1
								c1.1,0.6,1.5,1.9,1,3l-11,21.2C1552.1,2143.3,1551.3,2143.7,1550.5,2143.7z"/>
							<g>
								<path class="st0" d="M1290.9,1945.7l43.5,26.3l-30.7,52.2l-43.5-26.3c-8-4.8-10.7-15.1-6.1-22.9l14-23.9
									C1272.8,1943.3,1283,1940.9,1290.9,1945.7z"/>
								<path class="st0" d="M1303.7,2026.5c-0.4,0-0.8-0.1-1.2-0.3l-43.5-26.3c-9-5.4-12.1-17.1-6.9-25.9l14-23.9
									c2.5-4.2,6.5-7.2,11.3-8.5c4.9-1.2,10.1-0.5,14.5,2.2l43.5,26.3c1,0.6,1.4,2,0.8,3l-30.7,52.2c-0.3,0.5-0.8,0.9-1.4,1
									C1304.1,2026.4,1303.9,2026.5,1303.7,2026.5z M1282.2,1945.5c-1.2,0-2.4,0.1-3.5,0.4c-3.6,0.9-6.7,3.2-8.5,6.4l-14,23.9
									c-4,6.8-1.6,15.7,5.3,19.9l41.6,25.1l28.4-48.4l-41.6-25.1C1287.4,1946.2,1284.8,1945.5,1282.2,1945.5z"/>
							</g>
							<path class="st0" d="M1346.6,2033.6c-0.4,0-0.8-0.1-1.1-0.3c-1.1-0.6-1.4-2-0.8-3.1l14.8-24.6c0.6-1.1,2-1.4,3.1-0.8
								c1.1,0.6,1.4,2,0.8,3.1l-14.8,24.6C1348,2033.2,1347.3,2033.6,1346.6,2033.6z"/>
							<path class="st0" d="M1433.9,2054.4c-0.4,0-0.8-0.1-1.2-0.3l-54.5-34.2c-1-0.7-1.4-2-0.7-3.1c0.7-1,2-1.4,3.1-0.7l54.5,34.2
								c1,0.7,1.4,2,0.7,3.1C1435.3,2054,1434.6,2054.4,1433.9,2054.4z"/>
							<path class="st0" d="M1547.4,2124.8c-0.4,0-0.8-0.1-1.2-0.3l-21.3-13.2c-1-0.7-1.4-2-0.7-3.1c0.7-1,2-1.4,3.1-0.7l21.3,13.2
								c1,0.7,1.4,2,0.7,3.1C1548.9,2124.4,1548.1,2124.8,1547.4,2124.8z"/>
							<path class="st1" d="M1298.9,2005.5c-0.4,0-0.8-0.1-1.2-0.3l-33.1-20.3c-1-0.6-1.4-2-0.7-3.1c0.6-1.1,2-1.4,3.1-0.7
								l33.1,20.3c1,0.6,1.4,2,0.7,3.1C1300.4,2005.1,1299.6,2005.5,1298.9,2005.5z"/>
						</g>
						<path class="st1" d="M1384.7,2079.8c0,0,44.5-5.5,72.9-1.6c22.1,3.1,87.5-12.6,73.8,29.7c-2.9,9.1-4.5,15.2-12.6,23.8
							c-4.4,4.7-16.5,14.4-23.4,17.4c-33.4,14.7-63.7,20.9-100.6-3.3c-7.1-4.7-15.6-6.8-24.1-6
							C1365.8,2140.3,1383.2,2080.2,1384.7,2079.8z"/>
						<path class="st0" d="M1444.6,2164.2c-16.3,0-32.9-4.8-51-16.7c-6.7-4.4-14.7-6.4-22.6-5.6c-5.4,0.5-22.9,1.2-23.6,1.2
							c-1.2,0.1-2.3-0.9-2.3-2.2c0-1.2,0.9-2.3,2.2-2.3c0.2,0,18-0.6,23.3-1.2c8.9-0.9,18,1.3,25.5,6.3
							c35.4,23.2,63.9,18.4,98.5,3.2c6.4-2.8,18.3-12.2,22.7-16.9c7.2-7.6,8.9-13,11.5-21.1l0.6-1.8c2.5-7.8,2.3-13.6-0.7-17.6
							c-6.6-8.9-26.4-8.3-43.8-7.8c-10.9,0.3-21.3,0.6-27.9-1.5c-33.6-10.4-71.2,1.5-71.5,1.6c-1.9,0.4-6.7,0.3-18.1-0.5
							c-1.2-0.1-2.2-1.1-2.1-2.4c0.1-1.2,1.1-2.2,2.4-2.1c9.9,0.7,15.5,0.9,16.6,0.6c1.4-0.5,39-12.4,74.1-1.6
							c5.9,1.8,15.9,1.6,26.4,1.3c18.5-0.5,39.5-1.1,47.5,9.6c3.9,5.2,4.3,12.4,1.4,21.6l-0.6,1.8c-2.7,8.4-4.6,14.4-12.5,22.8
							c-4.6,4.9-17,14.8-24.1,17.9C1478.5,2159,1461.7,2164.2,1444.6,2164.2z"/>
					</g>
					<g>
						<path class="st1" d="M699.9,1567.7c0,0,137.2,18.2,182.7,73.7c57.7,70.3,82.6,174.8,90.6,219.9c2.4,13.3,2.1,26.9-0.8,40
							l-3.4,15.1c-11.8,53.2-60.4,90.1-114.8,87.3l2.7,0c-8.8-0.5-21.6-3.4-25.4-11.4l-14.4-26.3l-1.4,9.5
							c-10.8,70,45.7,165.8,45.7,165.8l-162.2-21.9c-83.4-8.4-162.7-41.2-226.3-95.7c-34.6-29.6-61.3-57.3-72.8-90.9
							c-19.6-57.1-17.8-73.3-23.3-142.6c-3.7-47.1,10.1-94.3,39.7-131.2C460,1604.8,543.7,1547.9,699.9,1567.7z"/>
						<path class="st0" d="M861.5,2143.5c-0.1,0-0.2,0-0.3,0L699,2121.6c-85.3-8.6-163.9-41.8-227.4-96.2
							c-30.8-26.4-61.1-55.8-73.4-91.8c-16.5-48.2-17.9-67.4-21.2-113.7c-0.6-8.7-1.3-18.4-2.2-29.5c-3.8-48.5,10.4-95.6,40.2-132.7
							c42.6-53.2,126.6-112.3,285.3-92.2c0,0,0,0,0,0c5.6,0.7,138.6,18.9,184.1,74.5c61.2,74.6,85.2,187.9,91.1,220.9
							c2.4,13.6,2.2,27.4-0.9,40.9l-3.4,15.1c-12.1,54.5-61.4,91.9-117.1,89c-0.4,0-0.7-0.1-1-0.3c-9.7-1.1-20-4.8-23.5-12.3
							l-11.1-20.3l-0.4,2.9c-10.6,68.4,44.9,163.4,45.4,164.3c0.4,0.7,0.4,1.7-0.1,2.4C862.9,2143.1,862.2,2143.5,861.5,2143.5z
							 M639.1,1565.9c-118.1,0-184.6,49.4-220.8,94.5c-29,36.2-42.9,82.3-39.2,129.6c0.9,11.1,1.6,20.8,2.2,29.5
							c3.3,45.9,4.6,64.8,21,112.5c12,35,41.8,63.9,72.1,89.9c62.8,53.8,140.6,86.7,225.1,95.2l157.8,21.3
							c-10.6-19-53.4-100.6-43.7-163.3l1.4-9.5c0.1-1,0.9-1.7,1.8-1.9c0.9-0.2,1.9,0.3,2.4,1.1l14.4,26.3
							c3.2,6.8,14.7,9.7,23.5,10.2c0.2,0,0.4,0.1,0.6,0.1c52.1,1.2,97.8-34.4,109.2-85.7l3.4-15.1c2.9-12.9,3.2-26.1,0.8-39.1
							c-5.9-32.7-29.7-145.1-90.2-218.9c-44.5-54.2-179.9-72.7-181.3-72.9C678.1,1567.2,657.9,1565.9,639.1,1565.9z"/>
					</g>
					<path class="st0" d="M826.5,1992.9c-0.8,0-1.6-0.5-2-1.3L786,1911c-0.5-1.1-0.1-2.4,1.1-3c1.1-0.5,2.4-0.1,3,1.1l38.4,80.7
						c0.5,1.1,0.1,2.4-1.1,3C827.1,1992.9,826.8,1992.9,826.5,1992.9z"/>
				</g>
				<g>
					<path class="st0" d="M721.4,1293l10.1-6.7c8.1-5.4,11.5-15.6,8.1-24.7c-10.1-27.3-47-75-181.2-38.8
						c-136.8,36.9-112.6,256.5,3.9,303.4s156.2-194.3,156.2-194.3L721.4,1293z"/>
					<g>
						<path class="st1" d="M704.6,1298c1.6-8.4,12.7-10.2,16.9-2.8c10.2,18,15.1,30.5,16.8,38.1c2.2,10.3-7.3,20.5-2.2,31.5
							c5.1,11,13.2,23.5,13.9,43.3c0.7,19.3,20.3,108-48.5,105.2c-2.7-0.1-5,2-4.9,4.7c0.2,13.5,0.9,50.6,3.9,70.7
							c1.6,10.9-5.2,21.4-15.8,24.4c-27.6,7.8-78.9,18.7-117.3,6.3c-10-3.2-15.2-14.2-11.7-24.1c4.5-12.6,10.9-48,6.7-69.1
							c0,0,23-2.3,48.6-14c39.4-18.1,58.7-62,47.9-104c-2.3-9-7.4-21.8-2.1-35.4c13.6-35,33.9,0.2,33.9,0.2L704.6,1298z"/>
						<path class="st0" d="M607.7,1627.2c-14.3,0-28.4-1.6-41.2-5.8c-5.4-1.7-9.7-5.5-12.2-10.6c-2.5-5.1-2.8-11-0.9-16.4
							c4.4-12.2,10.7-47.2,6.6-67.9c-0.1-0.6,0-1.3,0.4-1.8c0.4-0.5,0.9-0.8,1.6-0.9c0.2,0,23-2.4,47.9-13.8
							c37.8-17.3,57.4-60,46.6-101.4c-0.3-1.2-0.7-2.5-1-3.8c-2.5-8.7-5.8-20.5-1-33c4.2-10.7,9.5-16.4,16-16.9
							c7.9-0.6,15,7,18.9,12.1l13-69.5c0.9-4.7,4.5-8.3,9.3-9.1c4.8-0.8,9.4,1.4,11.8,5.6c11.5,20.2,15.6,32.2,17,38.7
							c1.1,5.1-0.3,10-1.7,14.7c-1.6,5.6-3.2,10.9-0.7,16.3c0.8,1.8,1.8,3.7,2.7,5.6c4.8,9.6,10.8,21.5,11.4,38.5
							c0.1,2.3,0.5,5.9,0.9,10.1c2.4,21.8,6.9,62.5-13.1,83.9c-9,9.7-22.1,14.2-38.7,13.5c-0.7,0-1.4,0.2-1.9,0.7
							c-0.5,0.5-0.7,1.1-0.7,1.8c0.2,14.6,0.9,50.7,3.9,70.4c1.8,12-5.7,23.5-17.4,26.8C666.6,1620.5,637,1627.2,607.7,1627.2z
							 M564.9,1528.1c3.4,21.9-2.7,55.5-7.2,68c-1.5,4.3-1.3,8.8,0.7,12.9c2,4,5.3,6.9,9.6,8.3c37.9,12.3,89,1.4,116-6.3
							c9.6-2.7,15.7-12.1,14.2-21.9c-3-20-3.7-56.3-3.9-71c0-1.9,0.7-3.7,2.1-5s3.2-2,5.2-2c15.3,0.6,27.2-3.5,35.3-12.1
							c18.5-19.9,14.2-59.2,11.9-80.3c-0.5-4.4-0.9-7.9-1-10.4c-0.6-16-6.1-27-10.9-36.7c-1-2-1.9-3.9-2.8-5.7
							c-3.2-6.9-1.3-13.6,0.4-19.4c1.3-4.4,2.5-8.6,1.6-12.6c-1.1-5.1-4.7-16.7-16.5-37.5c-1.8-3.1-4.9-3.8-7.2-3.4
							c-2.3,0.4-5,2-5.6,5.5l-14,74.9c-0.2,0.9-0.9,1.6-1.8,1.8c-0.9,0.2-1.8-0.3-2.3-1.1c-2.5-4.2-10.4-15.1-17.8-14.6
							c-4.6,0.4-8.7,5.1-12.1,14.1c-4.3,11.1-1.3,21.6,1.1,30.2c0.4,1.4,0.8,2.7,1.1,3.9c11.3,43.5-9.4,88.3-49.1,106.6
							C590.7,1523.9,571.5,1527.2,564.9,1528.1z"/>
					</g>
					<path class="st0" d="M503.3,1267.1c0,0-67.3-32.1-116.3,13.8c-49,45.9-96.4,146.9-23,257.1c46.2,69.2,63.9,124,70.7,155.1
						c2.3,10.4,15.9,13,21.9,4.2c29.6-44.4,83.5-142.3,57.4-234.2C478.8,1339.1,503.3,1267.1,503.3,1267.1z"/>
					<path class="st0" d="M750.2,1399.4c-0.8,0-1.5-0.4-1.9-1.1c-0.6-1.1-0.3-2.4,0.8-3.1c22.1-13.3,7.8-50.7,3.8-60l-62.5,31.9
						c-1.1,0.6-2.4,0.1-3-1c-0.6-1.1-0.1-2.4,1-3l64.6-33c0.5-0.3,1.2-0.3,1.7-0.1c0.6,0.2,1,0.6,1.3,1.1c1,2.1,24,50.7-4.6,67.8
						C751,1399.3,750.6,1399.4,750.2,1399.4z"/>
					<path class="st0" d="M751.9,1425.1c-0.6,0-1.1-0.2-1.6-0.7c-0.9-0.9-0.9-2.3,0-3.2l8.8-8.7c2.7-2.7,3-6.8,0.8-9.9l-6.1-8.5
						c-0.7-1-0.5-2.4,0.5-3.1c1-0.7,2.4-0.5,3.1,0.5l6.1,8.5c3.5,4.9,2.9,11.4-1.3,15.7l-8.8,8.7
						C753.1,1424.9,752.5,1425.1,751.9,1425.1z"/>
					<path class="st0" d="M681,1432.8c-1.4,0-3-0.2-4.6-0.6c-7.6-1.9-14.2-8.4-19.5-19.4c-0.5-1.1-0.1-2.4,1-3c1.1-0.5,2.4-0.1,3,1
						c4.7,9.7,10.2,15.4,16.5,17c6.7,1.7,12.1-2.1,12.2-2.2c1-0.7,2.4-0.5,3.1,0.5c0.7,1,0.5,2.4-0.5,3.1
						C692.1,1429.4,687.5,1432.8,681,1432.8z"/>
					<g>
						<path class="st1" d="M486.3,1261.1c0,0,62.6,18.8,37,78.8c0,0,28.9-20.9,28.2-53.4s-24.9-43.2-41-42.8
							C494.4,1244.1,486.3,1261.1,486.3,1261.1z"/>
						<path class="st0" d="M523.3,1342.1c-0.5,0-1-0.2-1.4-0.5c-0.8-0.6-1.1-1.7-0.7-2.6c7.3-17.1,7.9-32.3,1.9-45.2
							c-10.4-22.2-37.1-30.5-37.4-30.6c-0.6-0.2-1.1-0.6-1.4-1.2c-0.3-0.6-0.3-1.3,0-1.9c0.4-0.7,8.8-18.3,26.1-18.7
							c9.9-0.2,20,3.3,27.7,9.6c6.9,5.6,15.1,16.3,15.5,35.4c0.8,33.4-27.9,54.4-29.1,55.3C524.2,1342,523.8,1342.1,523.3,1342.1z
							 M489.6,1259.8c7.4,2.8,28.2,12.1,37.5,32.1c5.6,12,6,25.6,1.3,40.5c8.2-8.1,21.3-24.5,20.8-45.9
							c-0.3-13.8-5.1-24.9-13.9-32.1c-6.8-5.6-16.1-8.7-24.8-8.6C499.4,1246.2,492.3,1255.5,489.6,1259.8z"/>
					</g>
				</g>
			</g>
			<g>
				<path class="st0" d="M367,1774c51.6,31.2,156.6,75.7,325.7,65.4c12.4-0.8,23.9,6.6,28.3,18.3l10.5,42.2
					c18.5,74.2,53.4,143.3,102,202.3l25.2,30.6c3.9,4.7,0.2,11.8-5.9,11.3l-111.4-8.2c-191.3-25.3-339.9-121.2-387.5-296l-12.7-46.6
					C337.2,1778.2,353.6,1765.9,367,1774z"/>
			</g>
		</g>
		<g>
			<g>
				<path class="st1" d="M1418.3,585.2h366.9c20.8,0,36.7,16.9,36.7,37.7v106.2c0,20.8-15.9,37.6-36.7,37.6c-0.2,0-5.8,0-13.3,0
					v70.9l-48.3-70.9c-70.2,0-305.4,0-305.4,0c-20.8,0-38.6-16.8-38.6-37.6V622.9C1379.7,602.1,1397.5,585.2,1418.3,585.2z"/>
				<path class="st0" d="M1772,839.8c-0.7,0-1.4-0.4-1.8-1l-47.6-69.9h-304.2c-22.1,0-40.8-18.2-40.8-39.8V622.9
					c0-21.6,18.7-39.9,40.8-39.9h366.9c21.8,0,38.9,17.5,38.9,39.9v106.2c0,22.3-17.1,39.8-38.9,39.8h-11v68.7c0,1-0.6,1.8-1.6,2.1
					C1772.4,839.8,1772.2,839.8,1772,839.8z M1418.3,587.5c-19.7,0-36.3,16.2-36.3,35.4v106.2c0,19.1,16.6,35.3,36.3,35.3h305.4
					c0.7,0,1.4,0.4,1.8,1l44.2,64.9v-63.7c0-1.2,1-2.2,2.2-2.2h13.3c19.3,0,34.4-15.5,34.4-35.3V622.9c0-19.9-15.1-35.4-34.4-35.4
					H1418.3z"/>
			</g>
			<g>
				<path class="st0" d="M1556.1,702.3c-0.3,0-0.6-0.1-0.9-0.2l-50.5-22.9c-0.8-0.4-1.3-1.2-1.3-2c0-0.9,0.5-1.7,1.3-2l50.5-23.1
					c1.1-0.5,2.4,0,3,1.1c0.5,1.1,0,2.4-1.1,3l-46.1,21L1557,698c1.1,0.5,1.6,1.8,1.1,3C1557.7,701.8,1556.9,702.3,1556.1,702.3z"/>
				<path class="st0" d="M1628.5,702.3c-0.8,0-1.7-0.5-2-1.3c-0.5-1.1,0-2.4,1.1-3l46.1-20.9l-46.1-21c-1.1-0.5-1.6-1.8-1.1-3
					c0.5-1.1,1.8-1.6,3-1.1l50.5,23.1c0.8,0.4,1.3,1.2,1.3,2c0,0.9-0.5,1.7-1.3,2l-50.5,22.9
					C1629.1,702.2,1628.8,702.3,1628.5,702.3z"/>
				<path class="st0" d="M1571.3,729.2c-0.3,0-0.5,0-0.8-0.1c-1.1-0.4-1.7-1.7-1.3-2.9l39.3-102.9c0.4-1.2,1.7-1.7,2.9-1.3
					c1.1,0.4,1.7,1.7,1.3,2.9l-39.3,102.9C1573,728.6,1572.2,729.2,1571.3,729.2z"/>
			</g>
		</g>
		<g>
			<g>
				<path class="st0" d="M1499.1,1970.5c-0.9,0-1.7-0.5-2-1.3c-0.5-1.1,0-2.4,1.1-2.9c115.1-51,219.5-133.6,301.8-238.9
					c0.8-1,2.2-1.1,3.1-0.4c1,0.8,1.1,2.2,0.4,3.1c-82.8,105.9-187.8,188.9-303.5,240.2C1499.7,1970.4,1499.4,1970.5,1499.1,1970.5z
					"/>
				<path class="st0" d="M1488,2029.3c-0.9,0-1.7-0.5-2.1-1.4c-0.4-1.1,0.1-2.4,1.3-2.9c110.7-42.9,209.9-111,294.8-202.4
					c0.8-0.9,2.3-1,3.2-0.1c0.9,0.8,1,2.2,0.1,3.2c-85.4,91.9-185.1,160.3-296.5,203.5C1488.6,2029.2,1488.3,2029.3,1488,2029.3z"/>
			</g>
			<g>
				<path class="st0" d="M1000.2,410.5c-1,0-1.9-0.7-2.2-1.7c-0.3-1.2,0.5-2.4,1.7-2.7c115.2-26.6,229.4-28.4,339.3-5.3
					c1.2,0.3,2,1.4,1.7,2.6c-0.3,1.2-1.4,2-2.6,1.7c-109.3-22.9-222.8-21.1-337.3,5.3C1000.6,410.5,1000.4,410.5,1000.2,410.5z"/>
				<path class="st0" d="M1381.8,364c-0.2,0-0.4,0-0.6-0.1c-94.2-24.4-192.7-30.6-292.9-18.3c-1.2,0.1-2.3-0.7-2.5-1.9
					c-0.1-1.2,0.7-2.3,1.9-2.5c100.8-12.3,199.9-6.1,294.6,18.5c1.2,0.3,1.9,1.5,1.6,2.7C1383.7,363.3,1382.8,364,1381.8,364z"/>
			</g>
			<ellipse class="st0" cx="1445" cy="1975.3" rx="14.9" ry="14.9"/>
			<g>
				<path class="st0" d="M407,1104.1c-0.6,0-1.1-0.2-1.5-0.6c-0.9-0.9-0.9-2.3-0.1-3.2l8.2-8.6c0.9-0.9,2.3-0.9,3.2-0.1
					c0.9,0.9,0.9,2.3,0.1,3.2l-8.2,8.6C408.2,1103.8,407.6,1104.1,407,1104.1z"/>
				<path class="st0" d="M378.3,1134.1c-0.6,0-1.1-0.2-1.5-0.6c-0.9-0.9-0.9-2.3-0.1-3.2l8.2-8.6c0.9-0.9,2.3-0.9,3.2-0.1
					c0.9,0.9,0.9,2.3,0.1,3.2l-8.2,8.6C379.5,1133.8,378.9,1134.1,378.3,1134.1z"/>
				<path class="st0" d="M386.4,1104.5c-0.6,0-1.1-0.2-1.6-0.6l-8.3-8.2c-0.9-0.9-0.9-2.3,0-3.2c0.9-0.9,2.3-0.9,3.2,0l8.3,8.2
					c0.9,0.9,0.9,2.3,0,3.2C387.5,1104.3,386.9,1104.5,386.4,1104.5z"/>
				<path class="st0" d="M415.5,1133.2c-0.6,0-1.1-0.2-1.6-0.6l-8.3-8.2c-0.9-0.9-0.9-2.3,0-3.2c0.9-0.9,2.3-0.9,3.2,0l8.3,8.2
					c0.9,0.9,0.9,2.3,0,3.2C416.7,1133,416.1,1133.2,415.5,1133.2z"/>
			</g>
			<path class="st0" d="M1427,405.2c-2.7,0-5.3-0.5-7.9-1.5c-5.6-2.2-10-6.4-12.4-12c-4.9-11.4,0.2-24.7,11.3-29.7
				c5.4-2.4,11.4-2.6,16.8-0.4c5.6,2.2,10,6.4,12.4,12c4.9,11.4-0.2,24.7-11.3,29.7C1433.1,404.6,1430.1,405.2,1427,405.2z
				 M1427,364.5c-2.4,0-4.8,0.5-7.1,1.5c-9,4-13,14.7-9.1,23.9c1.9,4.5,5.4,7.9,9.9,9.6c4.4,1.7,9.1,1.6,13.4-0.3
				c9-4,13-14.7,9.1-23.9c-1.9-4.5-5.4-7.9-9.9-9.6C1431.3,364.9,1429.2,364.5,1427,364.5z M1419,364L1419,364L1419,364z"/>
		</g>
	</g>
</g>
</svg>
