<svg width="146" height="27" viewBox="0 0 146 27" fill="none" xmlns="http://www.w3.org/2000/svg">
<rect width="24" height="24" rx="4.5" fill="#09090B"/>
<path fill-rule="evenodd" clip-rule="evenodd" d="M5.7035 20.4385C6.04886 20.5006 6.3991 20.5317 6.75 20.5313C7.85903 20.5327 8.94589 20.2206 9.88513 19.6309C10.5624 19.7901 11.2711 19.875 12 19.875C16.6568 19.875 20.5312 16.4013 20.5312 12C20.5312 7.59875 16.6568 4.125 12 4.125C7.34325 4.125 3.46875 7.59875 3.46875 12C3.46875 14.1079 4.36562 16.0136 5.8085 17.418C6.0115 17.6158 6.05087 17.7925 6.03075 17.8931C5.92261 18.4374 5.67748 18.9452 5.3185 19.3684C5.24398 19.4564 5.19395 19.5624 5.17345 19.6759C5.15295 19.7893 5.16271 19.9062 5.20175 20.0147C5.24078 20.1232 5.30771 20.2195 5.39579 20.2939C5.48388 20.3683 5.59001 20.4182 5.7035 20.4385ZM8.71875 11.0156C8.45768 11.0156 8.2073 11.1193 8.02269 11.3039C7.83809 11.4885 7.73438 11.7389 7.73438 12C7.73438 12.2611 7.83809 12.5115 8.02269 12.6961C8.2073 12.8807 8.45768 12.9844 8.71875 12.9844C8.97982 12.9844 9.2302 12.8807 9.41481 12.6961C9.59941 12.5115 9.70312 12.2611 9.70312 12C9.70312 11.7389 9.59941 11.4885 9.41481 11.3039C9.2302 11.1193 8.97982 11.0156 8.71875 11.0156ZM11.0156 12C11.0156 11.7389 11.1193 11.4885 11.3039 11.3039C11.4885 11.1193 11.7389 11.0156 12 11.0156C12.2611 11.0156 12.5115 11.1193 12.6961 11.3039C12.8807 11.4885 12.9844 11.7389 12.9844 12C12.9844 12.2611 12.8807 12.5115 12.6961 12.6961C12.5115 12.8807 12.2611 12.9844 12 12.9844C11.7389 12.9844 11.4885 12.8807 11.3039 12.6961C11.1193 12.5115 11.0156 12.2611 11.0156 12ZM15.2812 11.0156C15.0202 11.0156 14.7698 11.1193 14.5852 11.3039C14.4006 11.4885 14.2969 11.7389 14.2969 12C14.2969 12.2611 14.4006 12.5115 14.5852 12.6961C14.7698 12.8807 15.0202 12.9844 15.2812 12.9844C15.5423 12.9844 15.7927 12.8807 15.9773 12.6961C16.1619 12.5115 16.2656 12.2611 16.2656 12C16.2656 11.7389 16.1619 11.4885 15.9773 11.3039C15.7927 11.1193 15.5423 11.0156 15.2812 11.0156Z" fill="#EFF6FF"/>
<rect x="15.375" y="3.375" width="5.25" height="5.25" rx="2.625" fill="#00AEEF"/>
<rect x="15.375" y="3.375" width="5.25" height="5.25" rx="2.625" stroke="#09090B" stroke-width="0.75"/>
<path d="M41.5187 11.6953C38.9797 11.6953 37.5109 10.7812 37.0266 9.67969C36.9094 9.42188 36.8547 9.15625 36.8547 8.89844C36.8547 8.10156 37.4562 7.55469 38.2766 7.55469C38.9016 7.55469 39.3234 7.75 39.7687 8.375C40.1594 8.92969 40.8156 9.15625 41.5578 9.15625C42.55 9.15625 43.1594 8.75 43.1594 8.19531C43.1594 7.66406 42.7219 7.4375 41.4562 7.21094L40.3234 7.00781C38.0812 6.60938 36.8547 5.47656 36.8547 3.72656C36.8547 1.46094 38.8078 0.03125 41.4875 0.03125C43.7219 0.03125 45.3234 0.820312 45.9094 2.22656C46.0031 2.45312 46.05 2.66406 46.05 2.92188C46.05 3.67188 45.5031 4.17969 44.675 4.1875C43.9719 4.1875 43.5266 3.94531 43.1281 3.34375C42.7609 2.78125 42.2375 2.57031 41.5266 2.57031C40.6047 2.57031 40.1359 2.97656 40.1359 3.48438C40.1359 3.99219 40.6203 4.23438 41.7453 4.4375L42.8781 4.64062C45.3 5.07812 46.4406 6.07031 46.4406 7.89844C46.4406 10.2188 44.6281 11.6953 41.5187 11.6953ZM52.2837 11.6953C49.3072 11.6953 47.315 10.0547 47.315 7.48438V1.76562C47.315 0.65625 47.9166 0.03125 48.9712 0.03125C50.0259 0.03125 50.6275 0.65625 50.6275 1.76562V7.11719C50.6275 8.30469 51.2134 8.95312 52.2837 8.95312C53.3541 8.95312 53.94 8.30469 53.94 7.11719V1.76562C53.94 0.65625 54.5416 0.03125 55.5962 0.03125C56.6509 0.03125 57.2525 0.65625 57.2525 1.76562V7.48438C57.2525 10.0547 55.2603 11.6953 52.2837 11.6953ZM60.1112 11.5C59.0566 11.5 58.455 10.875 58.455 9.76562V1.96094C58.455 0.851562 59.0566 0.226562 60.1112 0.226562H63.9941C66.2987 0.226562 67.6503 1.28125 67.6503 3.03906C67.6503 4.33594 66.6659 5.3125 65.3612 5.47656V5.53906C66.8847 5.57812 68.1581 6.72656 68.1581 8.21875C68.1581 10.1953 66.5956 11.5 64.1816 11.5H60.1112ZM61.7675 4.74219H63.0487C63.9003 4.74219 64.4316 4.29688 64.4316 3.61719C64.4316 2.92188 63.9316 2.5 63.0956 2.5H61.7675V4.74219ZM61.7675 9.22656H63.1816C64.205 9.22656 64.7909 8.76562 64.7909 7.91406C64.7909 7.10938 64.1972 6.64062 63.205 6.64062H61.7675V9.22656ZM73.4388 11.6953C70.8997 11.6953 69.4309 10.7812 68.9466 9.67969C68.8294 9.42188 68.7747 9.15625 68.7747 8.89844C68.7747 8.10156 69.3763 7.55469 70.1966 7.55469C70.8216 7.55469 71.2434 7.75 71.6888 8.375C72.0794 8.92969 72.7356 9.15625 73.4778 9.15625C74.47 9.15625 75.0794 8.75 75.0794 8.19531C75.0794 7.66406 74.6419 7.4375 73.3763 7.21094L72.2434 7.00781C70.0013 6.60938 68.7747 5.47656 68.7747 3.72656C68.7747 1.46094 70.7278 0.03125 73.4075 0.03125C75.6419 0.03125 77.2434 0.820312 77.8294 2.22656C77.9231 2.45312 77.97 2.66406 77.97 2.92188C77.97 3.67188 77.4231 4.17969 76.595 4.1875C75.8919 4.1875 75.4466 3.94531 75.0481 3.34375C74.6809 2.78125 74.1575 2.57031 73.4466 2.57031C72.5247 2.57031 72.0559 2.97656 72.0559 3.48438C72.0559 3.99219 72.5403 4.23438 73.6653 4.4375L74.7981 4.64062C77.22 5.07812 78.3606 6.07031 78.3606 7.89844C78.3606 10.2188 76.5481 11.6953 73.4388 11.6953ZM84.6413 11.6953C81.0631 11.6953 78.9616 9.57812 78.9616 5.85938C78.9616 2.14062 81.11 0.03125 84.5163 0.03125C86.6725 0.03125 88.2663 0.851562 89.1569 2.42188C89.3834 2.8125 89.5006 3.22656 89.5006 3.625C89.5006 4.46875 88.9303 5.01562 88.0631 5.01562C87.3444 5.01562 86.9069 4.73438 86.5475 4.03906C86.0475 3.07812 85.4225 2.63281 84.5553 2.63281C83.1959 2.63281 82.3366 3.83594 82.3366 5.85156C82.3366 7.89062 83.1881 9.09375 84.5631 9.09375C85.4694 9.09375 86.1022 8.63281 86.5788 7.63281C86.9147 6.92188 87.3131 6.64844 88.0084 6.64844C88.9538 6.64844 89.5709 7.22656 89.5709 8.10938C89.5709 8.39062 89.5084 8.6875 89.3913 8.97656C88.735 10.6094 86.8366 11.6953 84.6413 11.6953ZM92.3594 11.6953C91.3047 11.6953 90.7031 11.0703 90.7031 9.96094V1.96094C90.7031 0.851562 91.3047 0.226562 92.3594 0.226562H95.7109C98.7188 0.226562 100.266 1.64062 100.266 4.05469C100.266 5.30469 99.7344 6.48438 98.6641 7.10938L99.8438 9.04688C100.133 9.53125 100.195 9.78906 100.195 10.1797C100.195 11.0625 99.5078 11.6953 98.5469 11.6953C97.7344 11.6953 97.4062 11.4062 96.8203 10.3672L95.3359 7.71875H94.0156V9.96094C94.0156 11.0703 93.4141 11.6953 92.3594 11.6953ZM94.0156 5.53125H95.3828C96.3125 5.53125 96.8828 4.96094 96.8828 4.10938C96.8828 3.27344 96.2812 2.67188 95.3906 2.67188H94.0156V5.53125ZM102.906 11.6953C101.851 11.6953 101.249 11.0703 101.249 9.96094V1.76562C101.249 0.65625 101.851 0.03125 102.906 0.03125C103.96 0.03125 104.562 0.65625 104.562 1.76562V9.96094C104.562 11.0703 103.96 11.6953 102.906 11.6953ZM107.421 11.5C106.366 11.5 105.764 10.875 105.764 9.76562V1.96094C105.764 0.851562 106.366 0.226562 107.421 0.226562H111.303C113.608 0.226562 114.96 1.28125 114.96 3.03906C114.96 4.33594 113.975 5.3125 112.671 5.47656V5.53906C114.194 5.57812 115.467 6.72656 115.467 8.21875C115.467 10.1953 113.905 11.5 111.491 11.5H107.421ZM109.077 4.74219H110.358C111.21 4.74219 111.741 4.29688 111.741 3.61719C111.741 2.92188 111.241 2.5 110.405 2.5H109.077V4.74219ZM109.077 9.22656H110.491C111.514 9.22656 112.1 8.76562 112.1 7.91406C112.1 7.10938 111.507 6.64062 110.514 6.64062H109.077V9.22656ZM117.857 11.5C116.803 11.5 116.201 10.875 116.201 9.76562V1.96094C116.201 0.851562 116.803 0.226562 117.857 0.226562H122.85C123.74 0.226562 124.311 0.703125 124.311 1.54688C124.311 2.39062 123.725 2.86719 122.85 2.86719H119.514V4.67969H122.717C123.506 4.67969 124.022 5.10938 124.022 5.86719C124.022 6.625 123.522 7.05469 122.717 7.05469H119.514V8.85938H122.85C123.725 8.85938 124.311 9.33594 124.311 10.1797C124.311 11.0234 123.74 11.5 122.85 11.5H117.857ZM126.997 11.6953C125.943 11.6953 125.341 11.0703 125.341 9.96094V1.96094C125.341 0.851562 125.943 0.226562 126.997 0.226562H130.349C133.357 0.226562 134.904 1.64062 134.904 4.05469C134.904 5.30469 134.372 6.48438 133.302 7.10938L134.482 9.04688C134.771 9.53125 134.833 9.78906 134.833 10.1797C134.833 11.0625 134.146 11.6953 133.185 11.6953C132.372 11.6953 132.044 11.4062 131.458 10.3672L129.974 7.71875H128.654V9.96094C128.654 11.0703 128.052 11.6953 126.997 11.6953ZM128.654 5.53125H130.021C130.951 5.53125 131.521 4.96094 131.521 4.10938C131.521 3.27344 130.919 2.67188 130.029 2.67188H128.654V5.53125ZM140.434 11.6953C137.895 11.6953 136.427 10.7812 135.942 9.67969C135.825 9.42188 135.77 9.15625 135.77 8.89844C135.77 8.10156 136.372 7.55469 137.192 7.55469C137.817 7.55469 138.239 7.75 138.684 8.375C139.075 8.92969 139.731 9.15625 140.473 9.15625C141.466 9.15625 142.075 8.75 142.075 8.19531C142.075 7.66406 141.637 7.4375 140.372 7.21094L139.239 7.00781C136.997 6.60938 135.77 5.47656 135.77 3.72656C135.77 1.46094 137.723 0.03125 140.403 0.03125C142.637 0.03125 144.239 0.820312 144.825 2.22656C144.919 2.45312 144.966 2.66406 144.966 2.92188C144.966 3.67188 144.419 4.17969 143.591 4.1875C142.887 4.1875 142.442 3.94531 142.044 3.34375C141.677 2.78125 141.153 2.57031 140.442 2.57031C139.52 2.57031 139.052 2.97656 139.052 3.48438C139.052 3.99219 139.536 4.23438 140.661 4.4375L141.794 4.64062C144.216 5.07812 145.356 6.07031 145.356 7.89844C145.356 10.2188 143.544 11.6953 140.434 11.6953Z" fill="#09090B"/>
<path d="M70.2832 23.7256C69.4697 23.7256 68.916 23.1582 68.916 22.3789C68.916 21.6064 69.4697 21.0391 70.2832 21.0391C71.1035 21.0391 71.6572 21.6064 71.6572 22.3789C71.6572 23.1582 71.1035 23.7256 70.2832 23.7256ZM77.0182 23.7666C74.065 23.7666 72.2467 21.7842 72.2467 18.5713V18.5576C72.2467 15.3447 74.0582 13.3691 77.0182 13.3691C79.4996 13.3691 81.3111 14.9619 81.4547 17.1426V17.2656H79.0416L79.0348 17.2041C78.8912 16.1719 78.0982 15.4473 77.0182 15.4473C75.6441 15.4473 74.8033 16.623 74.8033 18.5508V18.5645C74.8033 20.5059 75.6441 21.6885 77.025 21.6885C78.1051 21.6885 78.8639 21.0117 79.0348 19.9932L79.0484 19.918H81.4615V20.0273C81.2975 22.2285 79.5475 23.7666 77.0182 23.7666ZM82.6799 23.5V13.6357H85.1887V17.5049H89.1193V13.6357H91.6213V23.5H89.1193V19.5215H85.1887V23.5H82.6799ZM92.6824 23.5L95.9979 13.6357H99.0672L102.383 23.5H99.7508L99.1424 21.333H95.9227L95.3143 23.5H92.6824ZM97.4676 15.8096L96.4285 19.5283H98.6365L97.5975 15.8096H97.4676ZM104.729 23.5V15.6523H101.885V13.6357H110.081V15.6523H107.231V23.5H104.729ZM114.328 13.041L111.635 26.0156H109.427L112.12 13.041H114.328Z" fill="#00AEEF"/>
</svg>
