<svg width="193" height="24" viewBox="0 0 193 24" fill="none" xmlns="http://www.w3.org/2000/svg">
<rect width="24" height="24" rx="4.5" fill="#09090B"/>
<path fill-rule="evenodd" clip-rule="evenodd" d="M5.7035 20.4385C6.04886 20.5006 6.3991 20.5317 6.75 20.5313C7.85903 20.5327 8.94589 20.2206 9.88513 19.6309C10.5624 19.7901 11.2711 19.875 12 19.875C16.6568 19.875 20.5312 16.4013 20.5312 12C20.5312 7.59875 16.6568 4.125 12 4.125C7.34325 4.125 3.46875 7.59875 3.46875 12C3.46875 14.1079 4.36562 16.0136 5.8085 17.418C6.0115 17.6158 6.05087 17.7925 6.03075 17.8931C5.92261 18.4374 5.67748 18.9452 5.3185 19.3684C5.24398 19.4564 5.19395 19.5624 5.17345 19.6759C5.15295 19.7893 5.16271 19.9062 5.20175 20.0147C5.24078 20.1232 5.30771 20.2195 5.39579 20.2939C5.48388 20.3683 5.59001 20.4182 5.7035 20.4385ZM8.71875 11.0156C8.45768 11.0156 8.2073 11.1193 8.02269 11.3039C7.83809 11.4885 7.73438 11.7389 7.73438 12C7.73438 12.2611 7.83809 12.5115 8.02269 12.6961C8.2073 12.8807 8.45768 12.9844 8.71875 12.9844C8.97982 12.9844 9.2302 12.8807 9.41481 12.6961C9.59941 12.5115 9.70312 12.2611 9.70312 12C9.70312 11.7389 9.59941 11.4885 9.41481 11.3039C9.2302 11.1193 8.97982 11.0156 8.71875 11.0156ZM11.0156 12C11.0156 11.7389 11.1193 11.4885 11.3039 11.3039C11.4885 11.1193 11.7389 11.0156 12 11.0156C12.2611 11.0156 12.5115 11.1193 12.6961 11.3039C12.8807 11.4885 12.9844 11.7389 12.9844 12C12.9844 12.2611 12.8807 12.5115 12.6961 12.6961C12.5115 12.8807 12.2611 12.9844 12 12.9844C11.7389 12.9844 11.4885 12.8807 11.3039 12.6961C11.1193 12.5115 11.0156 12.2611 11.0156 12ZM15.2812 11.0156C15.0202 11.0156 14.7698 11.1193 14.5852 11.3039C14.4006 11.4885 14.2969 11.7389 14.2969 12C14.2969 12.2611 14.4006 12.5115 14.5852 12.6961C14.7698 12.8807 15.0202 12.9844 15.2812 12.9844C15.5423 12.9844 15.7927 12.8807 15.9773 12.6961C16.1619 12.5115 16.2656 12.2611 16.2656 12C16.2656 11.7389 16.1619 11.4885 15.9773 11.3039C15.7927 11.1193 15.5423 11.0156 15.2812 11.0156Z" fill="#EFF6FF"/>
<rect x="15.375" y="3.375" width="5.25" height="5.25" rx="2.625" fill="#00AEEF"/>
<rect x="15.375" y="3.375" width="5.25" height="5.25" rx="2.625" stroke="#09090B" stroke-width="0.75"/>
<path d="M41.5187 17.6953C38.9797 17.6953 37.5109 16.7812 37.0266 15.6797C36.9094 15.4219 36.8547 15.1562 36.8547 14.8984C36.8547 14.1016 37.4562 13.5547 38.2766 13.5547C38.9016 13.5547 39.3234 13.75 39.7687 14.375C40.1594 14.9297 40.8156 15.1562 41.5578 15.1562C42.55 15.1562 43.1594 14.75 43.1594 14.1953C43.1594 13.6641 42.7219 13.4375 41.4562 13.2109L40.3234 13.0078C38.0812 12.6094 36.8547 11.4766 36.8547 9.72656C36.8547 7.46094 38.8078 6.03125 41.4875 6.03125C43.7219 6.03125 45.3234 6.82031 45.9094 8.22656C46.0031 8.45312 46.05 8.66406 46.05 8.92188C46.05 9.67188 45.5031 10.1797 44.675 10.1875C43.9719 10.1875 43.5266 9.94531 43.1281 9.34375C42.7609 8.78125 42.2375 8.57031 41.5266 8.57031C40.6047 8.57031 40.1359 8.97656 40.1359 9.48438C40.1359 9.99219 40.6203 10.2344 41.7453 10.4375L42.8781 10.6406C45.3 11.0781 46.4406 12.0703 46.4406 13.8984C46.4406 16.2188 44.6281 17.6953 41.5187 17.6953ZM52.2837 17.6953C49.3072 17.6953 47.315 16.0547 47.315 13.4844V7.76562C47.315 6.65625 47.9166 6.03125 48.9712 6.03125C50.0259 6.03125 50.6275 6.65625 50.6275 7.76562V13.1172C50.6275 14.3047 51.2134 14.9531 52.2837 14.9531C53.3541 14.9531 53.94 14.3047 53.94 13.1172V7.76562C53.94 6.65625 54.5416 6.03125 55.5962 6.03125C56.6509 6.03125 57.2525 6.65625 57.2525 7.76562V13.4844C57.2525 16.0547 55.2603 17.6953 52.2837 17.6953ZM60.1112 17.5C59.0566 17.5 58.455 16.875 58.455 15.7656V7.96094C58.455 6.85156 59.0566 6.22656 60.1112 6.22656H63.9941C66.2987 6.22656 67.6503 7.28125 67.6503 9.03906C67.6503 10.3359 66.6659 11.3125 65.3612 11.4766V11.5391C66.8847 11.5781 68.1581 12.7266 68.1581 14.2188C68.1581 16.1953 66.5956 17.5 64.1816 17.5H60.1112ZM61.7675 10.7422H63.0487C63.9003 10.7422 64.4316 10.2969 64.4316 9.61719C64.4316 8.92188 63.9316 8.5 63.0956 8.5H61.7675V10.7422ZM61.7675 15.2266H63.1816C64.205 15.2266 64.7909 14.7656 64.7909 13.9141C64.7909 13.1094 64.1972 12.6406 63.205 12.6406H61.7675V15.2266ZM73.4388 17.6953C70.8997 17.6953 69.4309 16.7812 68.9466 15.6797C68.8294 15.4219 68.7747 15.1562 68.7747 14.8984C68.7747 14.1016 69.3763 13.5547 70.1966 13.5547C70.8216 13.5547 71.2434 13.75 71.6888 14.375C72.0794 14.9297 72.7356 15.1562 73.4778 15.1562C74.47 15.1562 75.0794 14.75 75.0794 14.1953C75.0794 13.6641 74.6419 13.4375 73.3763 13.2109L72.2434 13.0078C70.0013 12.6094 68.7747 11.4766 68.7747 9.72656C68.7747 7.46094 70.7278 6.03125 73.4075 6.03125C75.6419 6.03125 77.2434 6.82031 77.8294 8.22656C77.9231 8.45312 77.97 8.66406 77.97 8.92188C77.97 9.67188 77.4231 10.1797 76.595 10.1875C75.8919 10.1875 75.4466 9.94531 75.0481 9.34375C74.6809 8.78125 74.1575 8.57031 73.4466 8.57031C72.5247 8.57031 72.0559 8.97656 72.0559 9.48438C72.0559 9.99219 72.5403 10.2344 73.6653 10.4375L74.7981 10.6406C77.22 11.0781 78.3606 12.0703 78.3606 13.8984C78.3606 16.2188 76.5481 17.6953 73.4388 17.6953ZM84.6413 17.6953C81.0631 17.6953 78.9616 15.5781 78.9616 11.8594C78.9616 8.14062 81.11 6.03125 84.5163 6.03125C86.6725 6.03125 88.2663 6.85156 89.1569 8.42188C89.3834 8.8125 89.5006 9.22656 89.5006 9.625C89.5006 10.4688 88.9303 11.0156 88.0631 11.0156C87.3444 11.0156 86.9069 10.7344 86.5475 10.0391C86.0475 9.07812 85.4225 8.63281 84.5553 8.63281C83.1959 8.63281 82.3366 9.83594 82.3366 11.8516C82.3366 13.8906 83.1881 15.0938 84.5631 15.0938C85.4694 15.0938 86.1022 14.6328 86.5788 13.6328C86.9147 12.9219 87.3131 12.6484 88.0084 12.6484C88.9538 12.6484 89.5709 13.2266 89.5709 14.1094C89.5709 14.3906 89.5084 14.6875 89.3913 14.9766C88.735 16.6094 86.8366 17.6953 84.6413 17.6953ZM92.3594 17.6953C91.3047 17.6953 90.7031 17.0703 90.7031 15.9609V7.96094C90.7031 6.85156 91.3047 6.22656 92.3594 6.22656H95.7109C98.7188 6.22656 100.266 7.64062 100.266 10.0547C100.266 11.3047 99.7344 12.4844 98.6641 13.1094L99.8438 15.0469C100.133 15.5312 100.195 15.7891 100.195 16.1797C100.195 17.0625 99.5078 17.6953 98.5469 17.6953C97.7344 17.6953 97.4062 17.4062 96.8203 16.3672L95.3359 13.7188H94.0156V15.9609C94.0156 17.0703 93.4141 17.6953 92.3594 17.6953ZM94.0156 11.5312H95.3828C96.3125 11.5312 96.8828 10.9609 96.8828 10.1094C96.8828 9.27344 96.2812 8.67188 95.3906 8.67188H94.0156V11.5312ZM102.906 17.6953C101.851 17.6953 101.249 17.0703 101.249 15.9609V7.76562C101.249 6.65625 101.851 6.03125 102.906 6.03125C103.96 6.03125 104.562 6.65625 104.562 7.76562V15.9609C104.562 17.0703 103.96 17.6953 102.906 17.6953ZM107.421 17.5C106.366 17.5 105.764 16.875 105.764 15.7656V7.96094C105.764 6.85156 106.366 6.22656 107.421 6.22656H111.303C113.608 6.22656 114.96 7.28125 114.96 9.03906C114.96 10.3359 113.975 11.3125 112.671 11.4766V11.5391C114.194 11.5781 115.467 12.7266 115.467 14.2188C115.467 16.1953 113.905 17.5 111.491 17.5H107.421ZM109.077 10.7422H110.358C111.21 10.7422 111.741 10.2969 111.741 9.61719C111.741 8.92188 111.241 8.5 110.405 8.5H109.077V10.7422ZM109.077 15.2266H110.491C111.514 15.2266 112.1 14.7656 112.1 13.9141C112.1 13.1094 111.507 12.6406 110.514 12.6406H109.077V15.2266ZM117.857 17.5C116.803 17.5 116.201 16.875 116.201 15.7656V7.96094C116.201 6.85156 116.803 6.22656 117.857 6.22656H122.85C123.74 6.22656 124.311 6.70312 124.311 7.54688C124.311 8.39062 123.725 8.86719 122.85 8.86719H119.514V10.6797H122.717C123.506 10.6797 124.022 11.1094 124.022 11.8672C124.022 12.625 123.522 13.0547 122.717 13.0547H119.514V14.8594H122.85C123.725 14.8594 124.311 15.3359 124.311 16.1797C124.311 17.0234 123.74 17.5 122.85 17.5H117.857ZM126.997 17.6953C125.943 17.6953 125.341 17.0703 125.341 15.9609V7.96094C125.341 6.85156 125.943 6.22656 126.997 6.22656H130.349C133.357 6.22656 134.904 7.64062 134.904 10.0547C134.904 11.3047 134.372 12.4844 133.302 13.1094L134.482 15.0469C134.771 15.5312 134.833 15.7891 134.833 16.1797C134.833 17.0625 134.146 17.6953 133.185 17.6953C132.372 17.6953 132.044 17.4062 131.458 16.3672L129.974 13.7188H128.654V15.9609C128.654 17.0703 128.052 17.6953 126.997 17.6953ZM128.654 11.5312H130.021C130.951 11.5312 131.521 10.9609 131.521 10.1094C131.521 9.27344 130.919 8.67188 130.029 8.67188H128.654V11.5312ZM140.434 17.6953C137.895 17.6953 136.427 16.7812 135.942 15.6797C135.825 15.4219 135.77 15.1562 135.77 14.8984C135.77 14.1016 136.372 13.5547 137.192 13.5547C137.817 13.5547 138.239 13.75 138.684 14.375C139.075 14.9297 139.731 15.1562 140.473 15.1562C141.466 15.1562 142.075 14.75 142.075 14.1953C142.075 13.6641 141.637 13.4375 140.372 13.2109L139.239 13.0078C136.997 12.6094 135.77 11.4766 135.77 9.72656C135.77 7.46094 137.723 6.03125 140.403 6.03125C142.637 6.03125 144.239 6.82031 144.825 8.22656C144.919 8.45312 144.966 8.66406 144.966 8.92188C144.966 9.67188 144.419 10.1797 143.591 10.1875C142.887 10.1875 142.442 9.94531 142.044 9.34375C141.677 8.78125 141.153 8.57031 140.442 8.57031C139.52 8.57031 139.052 8.97656 139.052 9.48438C139.052 9.99219 139.536 10.2344 140.661 10.4375L141.794 10.6406C144.216 11.0781 145.356 12.0703 145.356 13.8984C145.356 16.2188 143.544 17.6953 140.434 17.6953Z" fill="#09090B"/>
<path d="M148.783 16.7256C147.97 16.7256 147.416 16.1582 147.416 15.3789C147.416 14.6064 147.97 14.0391 148.783 14.0391C149.604 14.0391 150.157 14.6064 150.157 15.3789C150.157 16.1582 149.604 16.7256 148.783 16.7256ZM155.518 16.7666C152.565 16.7666 150.747 14.7842 150.747 11.5713V11.5576C150.747 8.34473 152.558 6.36914 155.518 6.36914C158 6.36914 159.811 7.96191 159.955 10.1426V10.2656H157.542L157.535 10.2041C157.391 9.17188 156.598 8.44727 155.518 8.44727C154.144 8.44727 153.303 9.62305 153.303 11.5508V11.5645C153.303 13.5059 154.144 14.6885 155.525 14.6885C156.605 14.6885 157.364 14.0117 157.535 12.9932L157.548 12.918H159.962V13.0273C159.797 15.2285 158.047 16.7666 155.518 16.7666ZM161.18 16.5V6.63574H163.689V10.5049H167.619V6.63574H170.121V16.5H167.619V12.5215H163.689V16.5H161.18ZM171.182 16.5L174.498 6.63574H177.567L180.883 16.5H178.251L177.642 14.333H174.423L173.814 16.5H171.182ZM175.968 8.80957L174.929 12.5283H177.137L176.097 8.80957H175.968ZM183.229 16.5V8.65234H180.385V6.63574H188.581V8.65234H185.731V16.5H183.229ZM192.828 6.04102L190.135 19.0156H187.927L190.62 6.04102H192.828Z" fill="#00AEEF"/>
</svg>
