<svg width="110" height="58" viewBox="0 0 110 58" fill="none" xmlns="http://www.w3.org/2000/svg">
<rect x="43" width="24" height="24" rx="4.5" fill="#09090B"/>
<path fill-rule="evenodd" clip-rule="evenodd" d="M48.7035 20.4385C49.0489 20.5006 49.3991 20.5317 49.75 20.5313C50.859 20.5327 51.9459 20.2206 52.8851 19.6309C53.5624 19.7901 54.2711 19.875 55 19.875C59.6568 19.875 63.5312 16.4013 63.5312 12C63.5312 7.59875 59.6568 4.125 55 4.125C50.3432 4.125 46.4688 7.59875 46.4688 12C46.4688 14.1079 47.3656 16.0136 48.8085 17.418C49.0115 17.6158 49.0509 17.7925 49.0307 17.8931C48.9226 18.4374 48.6775 18.9452 48.3185 19.3684C48.244 19.4564 48.1939 19.5624 48.1735 19.6759C48.153 19.7893 48.1627 19.9062 48.2017 20.0147C48.2408 20.1232 48.3077 20.2195 48.3958 20.2939C48.4839 20.3683 48.59 20.4182 48.7035 20.4385ZM51.7188 11.0156C51.4577 11.0156 51.2073 11.1193 51.0227 11.3039C50.8381 11.4885 50.7344 11.7389 50.7344 12C50.7344 12.2611 50.8381 12.5115 51.0227 12.6961C51.2073 12.8807 51.4577 12.9844 51.7188 12.9844C51.9798 12.9844 52.2302 12.8807 52.4148 12.6961C52.5994 12.5115 52.7031 12.2611 52.7031 12C52.7031 11.7389 52.5994 11.4885 52.4148 11.3039C52.2302 11.1193 51.9798 11.0156 51.7188 11.0156ZM54.0156 12C54.0156 11.7389 54.1193 11.4885 54.3039 11.3039C54.4885 11.1193 54.7389 11.0156 55 11.0156C55.2611 11.0156 55.5115 11.1193 55.6961 11.3039C55.8807 11.4885 55.9844 11.7389 55.9844 12C55.9844 12.2611 55.8807 12.5115 55.6961 12.6961C55.5115 12.8807 55.2611 12.9844 55 12.9844C54.7389 12.9844 54.4885 12.8807 54.3039 12.6961C54.1193 12.5115 54.0156 12.2611 54.0156 12ZM58.2812 11.0156C58.0202 11.0156 57.7698 11.1193 57.5852 11.3039C57.4006 11.4885 57.2969 11.7389 57.2969 12C57.2969 12.2611 57.4006 12.5115 57.5852 12.6961C57.7698 12.8807 58.0202 12.9844 58.2812 12.9844C58.5423 12.9844 58.7927 12.8807 58.9773 12.6961C59.1619 12.5115 59.2656 12.2611 59.2656 12C59.2656 11.7389 59.1619 11.4885 58.9773 11.3039C58.7927 11.1193 58.5423 11.0156 58.2812 11.0156Z" fill="#EFF6FF"/>
<rect x="58.375" y="3.375" width="5.25" height="5.25" rx="2.625" fill="#00AEEF"/>
<rect x="58.375" y="3.375" width="5.25" height="5.25" rx="2.625" stroke="#09090B" stroke-width="0.75"/>
<path d="M5.51875 43.1953C2.97969 43.1953 1.51094 42.2812 1.02656 41.1797C0.909374 40.9219 0.854687 40.6562 0.854687 40.3984C0.854687 39.6016 1.45625 39.0547 2.27656 39.0547C2.90156 39.0547 3.32344 39.25 3.76875 39.875C4.15937 40.4297 4.81562 40.6562 5.55781 40.6562C6.55 40.6562 7.15937 40.25 7.15937 39.6953C7.15937 39.1641 6.72187 38.9375 5.45625 38.7109L4.32344 38.5078C2.08125 38.1094 0.854687 36.9766 0.854687 35.2266C0.854687 32.9609 2.80781 31.5312 5.4875 31.5312C7.72187 31.5312 9.32344 32.3203 9.90937 33.7266C10.0031 33.9531 10.05 34.1641 10.05 34.4219C10.05 35.1719 9.50312 35.6797 8.675 35.6875C7.97187 35.6875 7.52656 35.4453 7.12812 34.8438C6.76094 34.2812 6.2375 34.0703 5.52656 34.0703C4.60469 34.0703 4.13594 34.4766 4.13594 34.9844C4.13594 35.4922 4.62031 35.7344 5.74531 35.9375L6.87812 36.1406C9.3 36.5781 10.4406 37.5703 10.4406 39.3984C10.4406 41.7188 8.62812 43.1953 5.51875 43.1953ZM16.2837 43.1953C13.3072 43.1953 11.315 41.5547 11.315 38.9844V33.2656C11.315 32.1562 11.9166 31.5312 12.9712 31.5312C14.0259 31.5312 14.6275 32.1562 14.6275 33.2656V38.6172C14.6275 39.8047 15.2134 40.4531 16.2837 40.4531C17.3541 40.4531 17.94 39.8047 17.94 38.6172V33.2656C17.94 32.1562 18.5416 31.5312 19.5962 31.5312C20.6509 31.5312 21.2525 32.1562 21.2525 33.2656V38.9844C21.2525 41.5547 19.2603 43.1953 16.2837 43.1953ZM24.1112 43C23.0566 43 22.455 42.375 22.455 41.2656V33.4609C22.455 32.3516 23.0566 31.7266 24.1112 31.7266H27.9941C30.2987 31.7266 31.6503 32.7812 31.6503 34.5391C31.6503 35.8359 30.6659 36.8125 29.3612 36.9766V37.0391C30.8847 37.0781 32.1581 38.2266 32.1581 39.7188C32.1581 41.6953 30.5956 43 28.1816 43H24.1112ZM25.7675 36.2422H27.0487C27.9003 36.2422 28.4316 35.7969 28.4316 35.1172C28.4316 34.4219 27.9316 34 27.0956 34H25.7675V36.2422ZM25.7675 40.7266H27.1816C28.205 40.7266 28.7909 40.2656 28.7909 39.4141C28.7909 38.6094 28.1972 38.1406 27.205 38.1406H25.7675V40.7266ZM37.4388 43.1953C34.8997 43.1953 33.4309 42.2812 32.9466 41.1797C32.8294 40.9219 32.7747 40.6562 32.7747 40.3984C32.7747 39.6016 33.3763 39.0547 34.1966 39.0547C34.8216 39.0547 35.2434 39.25 35.6888 39.875C36.0794 40.4297 36.7356 40.6562 37.4778 40.6562C38.47 40.6562 39.0794 40.25 39.0794 39.6953C39.0794 39.1641 38.6419 38.9375 37.3763 38.7109L36.2434 38.5078C34.0013 38.1094 32.7747 36.9766 32.7747 35.2266C32.7747 32.9609 34.7278 31.5312 37.4075 31.5312C39.6419 31.5312 41.2434 32.3203 41.8294 33.7266C41.9231 33.9531 41.97 34.1641 41.97 34.4219C41.97 35.1719 41.4231 35.6797 40.595 35.6875C39.8919 35.6875 39.4466 35.4453 39.0481 34.8438C38.6809 34.2812 38.1575 34.0703 37.4466 34.0703C36.5247 34.0703 36.0559 34.4766 36.0559 34.9844C36.0559 35.4922 36.5403 35.7344 37.6653 35.9375L38.7981 36.1406C41.22 36.5781 42.3606 37.5703 42.3606 39.3984C42.3606 41.7188 40.5481 43.1953 37.4388 43.1953ZM48.6413 43.1953C45.0631 43.1953 42.9616 41.0781 42.9616 37.3594C42.9616 33.6406 45.11 31.5312 48.5163 31.5312C50.6725 31.5312 52.2663 32.3516 53.1569 33.9219C53.3834 34.3125 53.5006 34.7266 53.5006 35.125C53.5006 35.9688 52.9303 36.5156 52.0631 36.5156C51.3444 36.5156 50.9069 36.2344 50.5475 35.5391C50.0475 34.5781 49.4225 34.1328 48.5553 34.1328C47.1959 34.1328 46.3366 35.3359 46.3366 37.3516C46.3366 39.3906 47.1881 40.5938 48.5631 40.5938C49.4694 40.5938 50.1022 40.1328 50.5788 39.1328C50.9147 38.4219 51.3131 38.1484 52.0084 38.1484C52.9538 38.1484 53.5709 38.7266 53.5709 39.6094C53.5709 39.8906 53.5084 40.1875 53.3913 40.4766C52.735 42.1094 50.8366 43.1953 48.6413 43.1953ZM56.3594 43.1953C55.3047 43.1953 54.7031 42.5703 54.7031 41.4609V33.4609C54.7031 32.3516 55.3047 31.7266 56.3594 31.7266H59.7109C62.7188 31.7266 64.2656 33.1406 64.2656 35.5547C64.2656 36.8047 63.7344 37.9844 62.6641 38.6094L63.8438 40.5469C64.1328 41.0312 64.1953 41.2891 64.1953 41.6797C64.1953 42.5625 63.5078 43.1953 62.5469 43.1953C61.7344 43.1953 61.4062 42.9062 60.8203 41.8672L59.3359 39.2188H58.0156V41.4609C58.0156 42.5703 57.4141 43.1953 56.3594 43.1953ZM58.0156 37.0312H59.3828C60.3125 37.0312 60.8828 36.4609 60.8828 35.6094C60.8828 34.7734 60.2812 34.1719 59.3906 34.1719H58.0156V37.0312ZM66.9056 43.1953C65.8509 43.1953 65.2494 42.5703 65.2494 41.4609V33.2656C65.2494 32.1562 65.8509 31.5312 66.9056 31.5312C67.9603 31.5312 68.5619 32.1562 68.5619 33.2656V41.4609C68.5619 42.5703 67.9603 43.1953 66.9056 43.1953ZM71.4206 43C70.3659 43 69.7644 42.375 69.7644 41.2656V33.4609C69.7644 32.3516 70.3659 31.7266 71.4206 31.7266H75.3034C77.6081 31.7266 78.9597 32.7812 78.9597 34.5391C78.9597 35.8359 77.9753 36.8125 76.6706 36.9766V37.0391C78.1941 37.0781 79.4675 38.2266 79.4675 39.7188C79.4675 41.6953 77.905 43 75.4909 43H71.4206ZM73.0769 36.2422H74.3581C75.2097 36.2422 75.7409 35.7969 75.7409 35.1172C75.7409 34.4219 75.2409 34 74.405 34H73.0769V36.2422ZM73.0769 40.7266H74.4909C75.5144 40.7266 76.1003 40.2656 76.1003 39.4141C76.1003 38.6094 75.5066 38.1406 74.5144 38.1406H73.0769V40.7266ZM81.8575 43C80.8028 43 80.2012 42.375 80.2012 41.2656V33.4609C80.2012 32.3516 80.8028 31.7266 81.8575 31.7266H86.8497C87.7403 31.7266 88.3106 32.2031 88.3106 33.0469C88.3106 33.8906 87.7247 34.3672 86.8497 34.3672H83.5137V36.1797H86.7169C87.5059 36.1797 88.0216 36.6094 88.0216 37.3672C88.0216 38.125 87.5216 38.5547 86.7169 38.5547H83.5137V40.3594H86.8497C87.7247 40.3594 88.3106 40.8359 88.3106 41.6797C88.3106 42.5234 87.7403 43 86.8497 43H81.8575ZM90.9975 43.1953C89.9428 43.1953 89.3412 42.5703 89.3412 41.4609V33.4609C89.3412 32.3516 89.9428 31.7266 90.9975 31.7266H94.3491C97.3569 31.7266 98.9037 33.1406 98.9037 35.5547C98.9037 36.8047 98.3725 37.9844 97.3022 38.6094L98.4819 40.5469C98.7709 41.0312 98.8334 41.2891 98.8334 41.6797C98.8334 42.5625 98.1459 43.1953 97.185 43.1953C96.3725 43.1953 96.0444 42.9062 95.4584 41.8672L93.9741 39.2188H92.6537V41.4609C92.6537 42.5703 92.0522 43.1953 90.9975 43.1953ZM92.6537 37.0312H94.0209C94.9506 37.0312 95.5209 36.4609 95.5209 35.6094C95.5209 34.7734 94.9194 34.1719 94.0287 34.1719H92.6537V37.0312ZM104.434 43.1953C101.895 43.1953 100.427 42.2812 99.9422 41.1797C99.825 40.9219 99.7703 40.6562 99.7703 40.3984C99.7703 39.6016 100.372 39.0547 101.192 39.0547C101.817 39.0547 102.239 39.25 102.684 39.875C103.075 40.4297 103.731 40.6562 104.473 40.6562C105.466 40.6562 106.075 40.25 106.075 39.6953C106.075 39.1641 105.637 38.9375 104.372 38.7109L103.239 38.5078C100.997 38.1094 99.7703 36.9766 99.7703 35.2266C99.7703 32.9609 101.723 31.5312 104.403 31.5312C106.637 31.5312 108.239 32.3203 108.825 33.7266C108.919 33.9531 108.966 34.1641 108.966 34.4219C108.966 35.1719 108.419 35.6797 107.591 35.6875C106.887 35.6875 106.442 35.4453 106.044 34.8438C105.677 34.2812 105.153 34.0703 104.442 34.0703C103.52 34.0703 103.052 34.4766 103.052 34.9844C103.052 35.4922 103.536 35.7344 104.661 35.9375L105.794 36.1406C108.216 36.5781 109.356 37.5703 109.356 39.3984C109.356 41.7188 107.544 43.1953 104.434 43.1953Z" fill="#09090B"/>
<path d="M34.2832 55.2256C33.4697 55.2256 32.916 54.6582 32.916 53.8789C32.916 53.1064 33.4697 52.5391 34.2832 52.5391C35.1035 52.5391 35.6572 53.1064 35.6572 53.8789C35.6572 54.6582 35.1035 55.2256 34.2832 55.2256ZM41.0182 55.2666C38.065 55.2666 36.2467 53.2842 36.2467 50.0713V50.0576C36.2467 46.8447 38.0582 44.8691 41.0182 44.8691C43.4996 44.8691 45.3111 46.4619 45.4547 48.6426V48.7656H43.0416L43.0348 48.7041C42.8912 47.6719 42.0982 46.9473 41.0182 46.9473C39.6441 46.9473 38.8033 48.123 38.8033 50.0508V50.0645C38.8033 52.0059 39.6441 53.1885 41.025 53.1885C42.1051 53.1885 42.8639 52.5117 43.0348 51.4932L43.0484 51.418H45.4615V51.5273C45.2975 53.7285 43.5475 55.2666 41.0182 55.2666ZM46.6799 55V45.1357H49.1887V49.0049H53.1193V45.1357H55.6213V55H53.1193V51.0215H49.1887V55H46.6799ZM56.6824 55L59.9979 45.1357H63.0672L66.3826 55H63.7508L63.1424 52.833H59.9227L59.3143 55H56.6824ZM61.4676 47.3096L60.4285 51.0283H62.6365L61.5975 47.3096H61.4676ZM68.7289 55V47.1523H65.8852V45.1357H74.0814V47.1523H71.2309V55H68.7289ZM78.3281 44.541L75.6348 57.5156H73.4268L76.1201 44.541H78.3281Z" fill="#00AEEF"/>
</svg>
