<svg xmlns:xlink="http://www.w3.org/1999/xlink" xmlns="http://www.w3.org/2000/svg" width="92" height="27" fill="none" viewBox="0 0 95 28" class="relative z-10 h-auto object-contain"><path fill="#FF4400" d="M9.747 3.585s4.78 2.082 7.604 5.09 3.839 8.102 0 11.218c-3.839 3.117-7.927.71-9.663-1.267s-4.566-8.1-4.566-8.1l2.662 1.156L0 0l10.818 6.13z"></path><path fill="#FF4400" d="M23 15.391C23 20.146 19.139 24 14.375 24S5.75 20.146 5.75 15.391c0-4.754 3.862-8.608 8.625-8.608 4.764 0 8.625 3.854 8.625 8.608"></path><path fill="#FAFAFA" d="M41.74 23.24q-1.06 0-1.96-.42a3.66 3.66 0 0 1-1.46-1.28L38.28 23h-2.22V9h2.26v5.56q.52-.78 1.4-1.24.9-.48 2.04-.48 1.44 0 2.48.7a4.54 4.54 0 0 1 1.64 1.86q.58 1.16.58 2.62 0 1.44-.58 2.64a4.7 4.7 0 0 1-1.64 1.88q-1.04.7-2.5.7m-.5-1.98q.86 0 1.52-.42t1.02-1.16a3.66 3.66 0 0 0 .38-1.66q0-.98-.4-1.7-.38-.72-1.04-1.1-.66-.4-1.48-.4-.86 0-1.52.42a2.83 2.83 0 0 0-1.02 1.14q-.36.72-.36 1.66t.36 1.68q.38.72 1.04 1.14.66.4 1.5.4M48.17 23V9h2.26v14zm7.514.24a4.35 4.35 0 0 1-1.72-.34q-.78-.36-1.26-1.04-.46-.68-.46-1.62 0-1.12.56-1.82t1.52-1.02a6.3 6.3 0 0 1 2.12-.34h2.48q0-.8-.26-1.3a1.66 1.66 0 0 0-.72-.76q-.46-.26-1.08-.26-.8 0-1.4.36t-.74 1.18h-2.28q.1-1.08.72-1.84.64-.78 1.62-1.18a5.3 5.3 0 0 1 2.1-.42q1.44 0 2.38.54.96.52 1.44 1.46.5.94.5 2.18v3.02q.02.54.26.78.26.24.8.26V23q-.84 0-1.44-.18t-1-.54a2.7 2.7 0 0 1-.62-.94q-.48.8-1.42 1.36-.92.54-2.1.54m.58-1.84q.78 0 1.36-.36.6-.38.94-1 .36-.64.36-1.4v-.06h-2.32q-.52 0-1 .14t-.76.46q-.28.3-.28.84 0 .72.5 1.06.5.32 1.2.32m7.205 1.6v-1.84l4.78-6.22h-4.72v-1.86h7.3v1.82l-4.8 6.24h4.86V23zm10.316-11.5q-.62 0-1.06-.44a1.45 1.45 0 0 1-.44-1.06q0-.62.44-1.04.44-.44 1.06-.44t1.06.44q.44.42.44 1.04t-.44 1.06-1.06.44M72.645 23v-9.92h2.28V23zm8.409 0q-1.52 0-2.32-.74t-.8-2.36v-4.92h-1.42v-1.9h1.42v-2.4h2.28v2.4h2.42v1.9h-2.42v4.94q0 .68.32.94.32.24.96.24h1.14V23zm4.345 4.4 2.18-4.84-4.1-9.48H86l2.8 7.08 2.9-7.08h2.38l-6.3 14.32z"></path></svg>
